<?xml version="1.0" encoding="UTF-8" standalone="no"?>
<!-- Created with Inkscape (http://www.inkscape.org/) -->

<svg
   xmlns:dc="http://purl.org/dc/elements/1.1/"
   xmlns:cc="http://creativecommons.org/ns#"
   xmlns:rdf="http://www.w3.org/1999/02/22-rdf-syntax-ns#"
   xmlns:svg="http://www.w3.org/2000/svg"
   xmlns="http://www.w3.org/2000/svg"
   xmlns:xlink="http://www.w3.org/1999/xlink"
   xmlns:sodipodi="http://sodipodi.sourceforge.net/DTD/sodipodi-0.dtd"
   xmlns:inkscape="http://www.inkscape.org/namespaces/inkscape"
   width="128"
   height="128"
   id="svg2606"
   sodipodi:version="0.32"
   inkscape:version="0.91 r13725"
   version="1.0"
   sodipodi:docname="edit.svg"
   inkscape:output_extension="org.inkscape.output.svgz.inkscape"
   inkscape:export-filename="/home/pinheiro/pics/oxygen/scalable/actions/go-next.png"
   inkscape:export-xdpi="180"
   inkscape:export-ydpi="180">
  <defs
     id="defs2608">
    <linearGradient
       inkscape:collect="always"
       id="linearGradient3449">
      <stop
         style="stop-color:#000000;stop-opacity:1;"
         offset="0"
         id="stop3451" />
      <stop
         style="stop-color:#000000;stop-opacity:0;"
         offset="1"
         id="stop3453" />
    </linearGradient>
    <linearGradient
       id="linearGradient3295">
      <stop
         style="stop-color:#63e9ff;stop-opacity:1;"
         offset="0"
         id="stop3297" />
      <stop
         style="stop-color:#ffffff;stop-opacity:0;"
         offset="1"
         id="stop3299" />
    </linearGradient>
    <linearGradient
       inkscape:collect="always"
       id="linearGradient3260">
      <stop
         style="stop-color:#ffffff;stop-opacity:1;"
         offset="0"
         id="stop3262" />
      <stop
         style="stop-color:#ffffff;stop-opacity:0;"
         offset="1"
         id="stop3264" />
    </linearGradient>
    <linearGradient
       id="linearGradient3202">
      <stop
         style="stop-color:#cdeeff;stop-opacity:1;"
         offset="0"
         id="stop3204" />
      <stop
         style="stop-color:#d2e8ed;stop-opacity:0;"
         offset="1"
         id="stop3206" />
    </linearGradient>
    <radialGradient
       id="XMLID_4_"
       cx="48"
       cy="-0.2148"
       r="55.147999"
       gradientTransform="matrix(0.9792,0,0,0.9725,133.0002,20.8762)"
       gradientUnits="userSpaceOnUse">
      <stop
         offset="0"
         style="stop-color:#72D13D"
         id="stop3082" />
      <stop
         offset="0.3553"
         style="stop-color:#35AC1C"
         id="stop3084" />
      <stop
         offset="0.6194"
         style="stop-color:#0F9508"
         id="stop3086" />
      <stop
         offset="0.7574"
         style="stop-color:#008C00"
         id="stop3088" />
      <stop
         offset="1"
         style="stop-color:#007A00"
         id="stop3090" />
    </radialGradient>
    <radialGradient
       inkscape:collect="always"
       xlink:href="#XMLID_4_"
       id="radialGradient3629"
       gradientUnits="userSpaceOnUse"
       gradientTransform="matrix(1,0,0,1.1383929,0,-10.517857)"
       cx="172"
       cy="76"
       fx="172"
       fy="76"
       r="56" />
    <radialGradient
       inkscape:collect="always"
       xlink:href="#linearGradient6666"
       id="radialGradient3213"
       gradientUnits="userSpaceOnUse"
       gradientTransform="matrix(1,0,0,1.1383929,0,-10.517857)"
       cx="172"
       cy="76"
       fx="188.88173"
       fy="121.44213"
       r="56" />
    <linearGradient
       inkscape:collect="always"
       xlink:href="#linearGradient3202"
       id="linearGradient3253"
       x1="47.968472"
       y1="16.138517"
       x2="49.218472"
       y2="85.427559"
       gradientUnits="userSpaceOnUse"
       gradientTransform="translate(-0.5,-87.681242)" />
    <radialGradient
       r="43.474762"
       fy="51.592991"
       fx="88.042809"
       cy="74.979416"
       cx="77.533371"
       spreadMethod="reflect"
       gradientTransform="matrix(-0.4961056,0.4409829,-0.7360594,-0.8280666,-11.726835,87.897058)"
       gradientUnits="userSpaceOnUse"
       id="radialGradient3139"
       xlink:href="#linearGradient2990"
       inkscape:collect="always" />
    <clipPath
       id="clipPath3135"
       clipPathUnits="userSpaceOnUse">
      <path
         style="fill:url(#radialGradient3139);fill-opacity:1;stroke:none;stroke-width:16.49500084;stroke-linecap:round;stroke-linejoin:round;stroke-miterlimit:4;stroke-dasharray:none;stroke-dashoffset:4.1500001;stroke-opacity:1"
         d="m -97.32181,27.94375 c -10.23931,10e-7 -20.46922,3.874426 -28.23381,11.639012 -8.00722,8.007231 -11.88924,18.639851 -11.63901,29.196647 l 0,28.042632 c 0,4.051739 3.2545,7.306239 7.30624,7.306239 l 65.133155,0 c 4.05174,0 7.30624,-3.2545 7.30624,-7.306239 l 0,-28.042632 c 0.25023,-10.556797 -3.63178,-21.189416 -11.639006,-29.196647 -7.76458,-7.764591 -17.994496,-11.639013 -28.233809,-11.639012 z m 0,15.537264 c 6.339352,10e-7 12.688275,2.436886 17.557634,7.306242 4.811426,4.811424 7.248997,11.046126 7.306242,17.302765 l -49.699436,0 c 0.0572,-6.25664 2.46651,-12.491342 7.27793,-17.302765 4.86936,-4.869361 11.21828,-7.306243 17.55763,-7.306242 z"
         id="path3137"
         sodipodi:nodetypes="csccccccsccsccsc"
         inkscape:connector-curvature="0" />
    </clipPath>
    <radialGradient
       r="43.474762"
       fy="51.592991"
       fx="88.042809"
       cy="74.979416"
       cx="77.533371"
       spreadMethod="reflect"
       gradientTransform="matrix(-0.4961056,0.4409829,-0.7360594,-0.8280666,-99.14147,87.897058)"
       gradientUnits="userSpaceOnUse"
       id="radialGradient3133"
       xlink:href="#linearGradient2990"
       inkscape:collect="always" />
    <clipPath
       id="clipPath3129"
       clipPathUnits="userSpaceOnUse">
      <path
         sodipodi:nodetypes="csccccccsccsccsc"
         id="path3131"
         d="m -184.73645,27.94375 c -10.23931,10e-7 -20.46922,3.874426 -28.23381,11.639012 -8.00722,8.007231 -11.88924,18.639851 -11.63901,29.196647 l 0,28.042632 c 0,4.051739 3.2545,7.306239 7.30624,7.306239 l 65.13316,0 c 4.05174,0 7.30624,-3.2545 7.30624,-7.306239 l 0,-28.042632 c 0.25023,-10.556797 -3.63178,-21.189416 -11.63901,-29.196647 -7.76458,-7.764591 -17.99449,-11.639013 -28.23381,-11.639012 z m 0,15.537264 c 6.33936,10e-7 12.68828,2.436886 17.55764,7.306242 4.81142,4.811424 7.249,11.046126 7.30624,17.302765 l -49.69944,0 c 0.0573,-6.25664 2.46651,-12.491342 7.27793,-17.302765 4.86936,-4.869361 11.21828,-7.306243 17.55763,-7.306242 z"
         style="fill:url(#radialGradient3133);fill-opacity:1;stroke:none;stroke-width:16.49500084;stroke-linecap:round;stroke-linejoin:round;stroke-miterlimit:4;stroke-dasharray:none;stroke-dashoffset:4.1500001;stroke-opacity:1"
         inkscape:connector-curvature="0" />
    </clipPath>
    <radialGradient
       r="43.474762"
       fy="51.592991"
       fx="73.551216"
       cy="74.979408"
       cx="63.041775"
       spreadMethod="reflect"
       gradientTransform="matrix(-1.1040885,0.8280667,-0.6647496,-0.8863327,191.44623,62.253906)"
       gradientUnits="userSpaceOnUse"
       id="radialGradient2409"
       xlink:href="#linearGradient2990"
       inkscape:collect="always" />
    <linearGradient
       y2="-20.962214"
       x2="60.402065"
       y1="64.076149"
       x1="60.402065"
       gradientUnits="userSpaceOnUse"
       id="linearGradient3289"
       xlink:href="#linearGradient6674"
       inkscape:collect="always" />
    <linearGradient
       gradientUnits="userSpaceOnUse"
       y2="8"
       x2="-60"
       y1="105.83054"
       x1="-60.945251"
       id="linearGradient3243"
       xlink:href="#linearGradient3237"
       inkscape:collect="always" />
    <linearGradient
       y2="21.03125"
       x2="31.376678"
       y1="71.084908"
       x1="115.76678"
       gradientTransform="translate(0.2332229,1.9150941)"
       gradientUnits="userSpaceOnUse"
       id="linearGradient3233"
       xlink:href="#linearGradient6446"
       inkscape:collect="always" />
    <linearGradient
       y2="46.228859"
       x2="59.225807"
       y1="7.8973217"
       x1="59.225807"
       gradientTransform="translate(0.2623629,1)"
       gradientUnits="userSpaceOnUse"
       id="linearGradient3231"
       xlink:href="#linearGradient6446"
       inkscape:collect="always" />
    <linearGradient
       y2="82.029854"
       x2="74.447762"
       y1="-26.936626"
       x1="64"
       gradientUnits="userSpaceOnUse"
       id="linearGradient2816"
       xlink:href="#linearGradient6446"
       inkscape:collect="always" />
    <linearGradient
       gradientUnits="userSpaceOnUse"
       y2="88.633484"
       x2="19.934336"
       y1="50.580647"
       x1="19.096775"
       id="linearGradient6680"
       xlink:href="#linearGradient6674"
       inkscape:collect="always" />
    <linearGradient
       gradientTransform="translate(0,3)"
       gradientUnits="userSpaceOnUse"
       y2="50.728985"
       x2="62.038712"
       y1="15.91371"
       x1="62.038712"
       id="linearGradient6649"
       xlink:href="#linearGradient6643"
       inkscape:collect="always" />
    <linearGradient
       gradientUnits="userSpaceOnUse"
       y2="74.913147"
       x2="55.329033"
       y1="112"
       x1="55.329033"
       id="linearGradient6637"
       xlink:href="#linearGradient6631"
       inkscape:collect="always" />
    <linearGradient
       y2="28.235947"
       x2="13.96104"
       y1="21.101994"
       x1="21.094994"
       spreadMethod="reflect"
       gradientTransform="translate(0.4129032,0.6193548)"
       gradientUnits="userSpaceOnUse"
       id="linearGradient6472"
       xlink:href="#linearGradient6446"
       inkscape:collect="always" />
    <linearGradient
       y2="28.235947"
       x2="13.96104"
       y1="21.101994"
       x1="21.094994"
       spreadMethod="reflect"
       gradientTransform="translate(0.4129032,0.6193548)"
       gradientUnits="userSpaceOnUse"
       id="linearGradient6470"
       xlink:href="#linearGradient6446"
       inkscape:collect="always" />
    <linearGradient
       y2="27.070099"
       x2="15.126888"
       y1="21.101994"
       x1="21.094994"
       spreadMethod="reflect"
       gradientTransform="translate(0.4129032,0.6193548)"
       gradientUnits="userSpaceOnUse"
       id="linearGradient6464"
       xlink:href="#linearGradient6446"
       inkscape:collect="always" />
    <linearGradient
       gradientTransform="translate(-7.5870968,-7.3806452)"
       spreadMethod="reflect"
       gradientUnits="userSpaceOnUse"
       y2="27.007854"
       x2="15.189133"
       y1="21.101994"
       x1="21.094994"
       id="linearGradient6452"
       xlink:href="#linearGradient6446"
       inkscape:collect="always" />
    <linearGradient
       gradientUnits="userSpaceOnUse"
       y2="-24"
       x2="24"
       y1="88"
       x1="32"
       id="linearGradient6410"
       xlink:href="#linearGradient6404"
       inkscape:collect="always" />
    <radialGradient
       r="42.559486"
       fy="103.5803"
       fx="42.700352"
       cy="103.5803"
       cx="42.700352"
       spreadMethod="pad"
       gradientTransform="matrix(1.3965253,0.00698315,-0.0077815,1.5561835,-122.82611,-69.698616)"
       gradientUnits="userSpaceOnUse"
       id="radialGradient9692"
       xlink:href="#linearGradient6666"
       inkscape:collect="always" />
    <linearGradient
       id="linearGradient6404">
      <stop
         id="stop6406"
         offset="0"
         style="stop-color:#081e3e;stop-opacity:1;" />
      <stop
         id="stop6408"
         offset="1"
         style="stop-color:#387de4;stop-opacity:1;" />
    </linearGradient>
    <linearGradient
       id="linearGradient6446">
      <stop
         id="stop6448"
         offset="0"
         style="stop-color:#ffffff;stop-opacity:1;" />
      <stop
         id="stop6450"
         offset="1"
         style="stop-color:#ffffff;stop-opacity:0;" />
    </linearGradient>
    <linearGradient
       id="linearGradient6631">
      <stop
         id="stop6633"
         offset="0"
         style="stop-color:#703700;stop-opacity:1;" />
      <stop
         id="stop6635"
         offset="1"
         style="stop-color:#bf5e00;stop-opacity:0;" />
    </linearGradient>
    <linearGradient
       id="linearGradient6643">
      <stop
         id="stop6645"
         offset="0"
         style="stop-color:#fffddc;stop-opacity:1;" />
      <stop
         id="stop6647"
         offset="1"
         style="stop-color:#ffdfbf;stop-opacity:0;" />
    </linearGradient>
    <linearGradient
       id="linearGradient6666">
      <stop
         style="stop-color:#9fc1f2;stop-opacity:1;"
         offset="0"
         id="stop6668" />
      <stop
         id="stop3183"
         offset="0.5"
         style="stop-color:#587eb5;stop-opacity:1;" />
      <stop
         style="stop-color:#0c2a58;stop-opacity:1;"
         offset="1"
         id="stop6670" />
    </linearGradient>
    <linearGradient
       id="linearGradient6674">
      <stop
         id="stop6676"
         offset="0"
         style="stop-color:#001648;stop-opacity:1;" />
      <stop
         id="stop6678"
         offset="1"
         style="stop-color:#11a9ff;stop-opacity:0;" />
    </linearGradient>
    <linearGradient
       id="linearGradient3237">
      <stop
         id="stop3239"
         offset="0"
         style="stop-color:#d5e6ff;stop-opacity:1;" />
      <stop
         id="stop3241"
         offset="1"
         style="stop-color:#ffffff;stop-opacity:0;" />
    </linearGradient>
    <linearGradient
       id="linearGradient2990">
      <stop
         id="stop2992"
         offset="0"
         style="stop-color:#d7d7d7;stop-opacity:1;" />
      <stop
         id="stop2994"
         offset="1"
         style="stop-color:#ffffff;stop-opacity:1;" />
    </linearGradient>
    <linearGradient
       inkscape:collect="always"
       xlink:href="#linearGradient6404"
       id="linearGradient3219"
       gradientUnits="userSpaceOnUse"
       gradientTransform="matrix(-1,0,0,0.8610463,375,-1.4361867)"
       x1="194.5"
       y1="123.90683"
       x2="104.25"
       y2="5.1559582" />
    <radialGradient
       inkscape:collect="always"
       xlink:href="#linearGradient3449"
       id="radialGradient3221"
       gradientUnits="userSpaceOnUse"
       gradientTransform="matrix(-0.2586607,-0.5212474,-0.8274344,0.4106011,302.53945,50.055595)"
       cx="-16.668488"
       cy="86.826965"
       fx="-16.668488"
       fy="86.826965"
       r="60" />
    <linearGradient
       inkscape:collect="always"
       xlink:href="#linearGradient3260"
       id="linearGradient3223"
       gradientUnits="userSpaceOnUse"
       spreadMethod="reflect"
       x1="73.742638"
       y1="15.336544"
       x2="78.939339"
       y2="16.750759" />
    <linearGradient
       inkscape:collect="always"
       xlink:href="#linearGradient3202"
       id="linearGradient3225"
       gradientUnits="userSpaceOnUse"
       gradientTransform="matrix(1,0,0,0.8610463,-108.16138,-1.4361867)"
       spreadMethod="reflect"
       x1="223.32712"
       y1="53.784153"
       x2="226.659"
       y2="57.279232" />
    <radialGradient
       inkscape:collect="always"
       xlink:href="#linearGradient3449"
       id="radialGradient3227"
       gradientUnits="userSpaceOnUse"
       gradientTransform="matrix(-0.5816285,0.01767767,0.02698625,0.8878982,235.07816,5.9419094)"
       cx="72.020813"
       cy="66.344505"
       fx="72.020813"
       fy="66.344505"
       r="60" />
    <linearGradient
       inkscape:collect="always"
       xlink:href="#linearGradient3295"
       id="linearGradient3229"
       gradientUnits="userSpaceOnUse"
       spreadMethod="reflect"
       x1="74.75"
       y1="14.275884"
       x2="78.939339"
       y2="16.750759" />
    <linearGradient
       inkscape:collect="always"
       xlink:href="#linearGradient3260"
       id="linearGradient3232"
       gradientUnits="userSpaceOnUse"
       gradientTransform="matrix(1,0,0,0.8610463,-108.16138,-1.4361867)"
       spreadMethod="reflect"
       x1="223.32712"
       y1="53.784153"
       x2="226.659"
       y2="57.279232" />
    <radialGradient
       inkscape:collect="always"
       xlink:href="#linearGradient6666"
       id="radialGradient3234"
       gradientUnits="userSpaceOnUse"
       gradientTransform="matrix(1,0,0,1.1383929,0,-10.517857)"
       cx="172"
       cy="76"
       fx="188.88173"
       fy="121.44213"
       r="56" />
    <radialGradient
       inkscape:collect="always"
       xlink:href="#XMLID_4_"
       id="radialGradient3236"
       gradientUnits="userSpaceOnUse"
       gradientTransform="matrix(1,0,0,1.1383929,0,-10.517857)"
       cx="172"
       cy="76"
       fx="172"
       fy="76"
       r="56" />
    <linearGradient
       inkscape:collect="always"
       xlink:href="#linearGradient3295"
       id="linearGradient3238"
       gradientUnits="userSpaceOnUse"
       gradientTransform="translate(97,0)"
       x1="179.17224"
       y1="123.75864"
       x2="173.98071"
       y2="65.448112" />
    <linearGradient
       inkscape:collect="always"
       xlink:href="#linearGradient3295"
       id="linearGradient3240"
       gradientUnits="userSpaceOnUse"
       x1="179.17224"
       y1="123.75864"
       x2="173.98071"
       y2="65.448112" />
    <linearGradient
       inkscape:collect="always"
       xlink:href="#linearGradient3202"
       id="linearGradient3242"
       gradientUnits="userSpaceOnUse"
       gradientTransform="translate(138.5,0)"
       x1="47.968472"
       y1="16.138517"
       x2="49.218472"
       y2="85.427559" />
    <linearGradient
       inkscape:collect="always"
       xlink:href="#linearGradient3260"
       id="linearGradient3244"
       gradientUnits="userSpaceOnUse"
       gradientTransform="translate(138.78748,-0.1385179)"
       x1="87.468468"
       y1="-0.36148256"
       x2="116.71847"
       y2="106.42756" />
    <linearGradient
       inkscape:collect="always"
       xlink:href="#linearGradient3260"
       id="linearGradient3246"
       gradientUnits="userSpaceOnUse"
       gradientTransform="translate(138.78748,-0.1385179)"
       x1="196.46846"
       y1="63.138515"
       x2="52.218468"
       y2="66.224457" />
    <radialGradient
       inkscape:collect="always"
       xlink:href="#linearGradient6666"
       id="radialGradient3017"
       gradientUnits="userSpaceOnUse"
       gradientTransform="matrix(1,0,0,1.1383929,0,-10.517857)"
       cx="180.33144"
       cy="95.705101"
       fx="180.33144"
       fy="95.705101"
       r="56" />
    <radialGradient
       inkscape:collect="always"
       xlink:href="#linearGradient6666"
       id="radialGradient3019"
       gradientUnits="userSpaceOnUse"
       gradientTransform="matrix(1,0,0,1.1383929,0,-10.517857)"
       cx="180.33144"
       cy="95.705101"
       fx="180.33144"
       fy="95.705101"
       r="56" />
    <radialGradient
       inkscape:collect="always"
       xlink:href="#linearGradient6666"
       id="radialGradient3022"
       gradientUnits="userSpaceOnUse"
       gradientTransform="matrix(1,0,0,0.9801409,-108,-10.49071)"
       cx="180.33144"
       cy="95.705101"
       fx="180.33144"
       fy="95.705101"
       r="56" />
    <linearGradient
       inkscape:collect="always"
       xlink:href="#linearGradient3202"
       id="linearGradient3040"
       x1="86.54718"
       y1="16.154284"
       x2="84.946472"
       y2="77.340378"
       gradientUnits="userSpaceOnUse" />
    <linearGradient
       inkscape:collect="always"
       xlink:href="#linearGradient3202"
       id="linearGradient3048"
       gradientUnits="userSpaceOnUse"
       x1="86.54718"
       y1="16.154284"
       x2="88.73349"
       y2="85.671814"
       gradientTransform="translate(0,-71.953293)" />
    <linearGradient
       inkscape:collect="always"
       xlink:href="#linearGradient3202"
       id="linearGradient3052"
       gradientUnits="userSpaceOnUse"
       gradientTransform="translate(0,-70.953293)"
       x1="86.54718"
       y1="16.154284"
       x2="88.73349"
       y2="85.671814" />
    <linearGradient
       inkscape:collect="always"
       xlink:href="#linearGradient3202"
       id="linearGradient3056"
       gradientUnits="userSpaceOnUse"
       gradientTransform="translate(-110.95955,-70.953293)"
       x1="86.54718"
       y1="16.154284"
       x2="88.73349"
       y2="85.671814" />
    <linearGradient
       inkscape:collect="always"
       xlink:href="#linearGradient3202"
       id="linearGradient3060"
       gradientUnits="userSpaceOnUse"
       gradientTransform="translate(-111.95955,-71.953293)"
       x1="86.54718"
       y1="16.154284"
       x2="88.73349"
       y2="85.671814" />
    <linearGradient
       inkscape:collect="always"
       xlink:href="#linearGradient3202"
       id="linearGradient3066"
       gradientUnits="userSpaceOnUse"
       gradientTransform="translate(-112.95955,-71.753293)"
       x1="86.54718"
       y1="16.154284"
       x2="88.73349"
       y2="85.671814" />
    <linearGradient
       inkscape:collect="always"
       xlink:href="#linearGradient3202"
       id="linearGradient3068"
       gradientUnits="userSpaceOnUse"
       gradientTransform="translate(-110.95955,-70.953293)"
       x1="86.54718"
       y1="16.154284"
       x2="88.73349"
       y2="85.671814" />
    <linearGradient
       inkscape:collect="always"
       xlink:href="#linearGradient3202"
       id="linearGradient3073"
       gradientUnits="userSpaceOnUse"
       gradientTransform="translate(0,-71.953293)"
       x1="86.54718"
       y1="16.154284"
       x2="88.73349"
       y2="85.671814" />
    <radialGradient
       r="3.406888"
       fy="120.64188"
       fx="42.617531"
       cy="120.64188"
       cx="42.617531"
       gradientTransform="matrix(1.26272,1.324035,-12.00179,11.46065,1450.225,-1478.912)"
       gradientUnits="userSpaceOnUse"
       id="radialGradient31062"
       xlink:href="#linearGradient2257"
       inkscape:collect="always" />
    <linearGradient
       id="linearGradient2257">
      <stop
         style="stop-color:#b4942a;stop-opacity:1;"
         offset="0"
         id="stop2259" />
      <stop
         style="stop-color:#e4dcc9;stop-opacity:1"
         offset="1"
         id="stop2261" />
    </linearGradient>
    <radialGradient
       r="2.6143966"
       fy="58.089687"
       fx="15.727077"
       cy="58.089687"
       cx="15.727077"
       gradientTransform="matrix(1.587638,1.506216,-21.58334,23.25891,1307.788,-1443.899)"
       gradientUnits="userSpaceOnUse"
       id="radialGradient31064"
       xlink:href="#linearGradient2598"
       inkscape:collect="always" />
    <linearGradient
       id="linearGradient2598">
      <stop
         style="stop-color:#252525;stop-opacity:1;"
         offset="0"
         id="stop2600" />
      <stop
         id="stop2606"
         offset="0.29354507"
         style="stop-color:#252525;stop-opacity:1;" />
      <stop
         style="stop-color:#252525;stop-opacity:1;"
         offset="0.45366704"
         id="stop2608" />
      <stop
         style="stop-color:#000000;stop-opacity:1;"
         offset="1"
         id="stop2602" />
    </linearGradient>
    <radialGradient
       r="47.746403"
       fy="64.141281"
       fx="16.217354"
       cy="95.769279"
       cx="36.675648"
       gradientTransform="matrix(0.05400366,0.05179191,-1.084509,1.144424,191.1102,-188.1024)"
       gradientUnits="userSpaceOnUse"
       id="radialGradient31066"
       xlink:href="#linearGradient3058"
       inkscape:collect="always" />
    <linearGradient
       id="linearGradient3058">
      <stop
         style="stop-color:#9a7600;stop-opacity:1;"
         offset="0"
         id="stop3060" />
      <stop
         id="stop3066"
         offset="0.09292036"
         style="stop-color:#e3ad00;stop-opacity:1;" />
      <stop
         style="stop-color:#ffcd2c;stop-opacity:1;"
         offset="0.5043171"
         id="stop3070" />
      <stop
         style="stop-color:#e3ad00;stop-opacity:1;"
         offset="0.91571385"
         id="stop3068" />
      <stop
         style="stop-color:#b98d00;stop-opacity:1;"
         offset="1"
         id="stop3062" />
    </linearGradient>
    <linearGradient
       y2="57.383999"
       x2="14.493531"
       y1="57.383999"
       x1="11.326384"
       gradientTransform="matrix(0.878133,0.819728,-0.816741,0.881344,121.1234,-142.3722)"
       gradientUnits="userSpaceOnUse"
       id="linearGradient31068"
       xlink:href="#linearGradient3058"
       inkscape:collect="always" />
    <radialGradient
       r="47.595196"
       fy="7.4622769"
       fx="34.677639"
       cy="7.4622769"
       cx="34.677639"
       gradientTransform="matrix(0.999914,-0.00784165,5.666079e-4,0.02048306,-0.00124223,7.581357)"
       gradientUnits="userSpaceOnUse"
       id="radialGradient31070"
       xlink:href="#linearGradient3260"
       inkscape:collect="always" />
    <radialGradient
       r="47.595196"
       fy="7.4622769"
       fx="34.677639"
       cy="7.4622769"
       cx="34.677639"
       gradientTransform="matrix(-1.5103,0.00264127,-1.167078e-4,-0.00911022,87.0522,7.438666)"
       gradientUnits="userSpaceOnUse"
       id="radialGradient31072"
       xlink:href="#linearGradient3260"
       inkscape:collect="always" />
    <radialGradient
       r="3.9750404"
       fy="6.7701697"
       fx="47.370888"
       cy="8.4953117"
       cx="49.009884"
       gradientTransform="matrix(1.140533,1.061585,-0.398494,0.431267,64.32009,-164.2057)"
       gradientUnits="userSpaceOnUse"
       id="radialGradient31074"
       xlink:href="#linearGradient3225-3"
       inkscape:collect="always" />
    <linearGradient
       id="linearGradient3225-3">
      <stop
         style="stop-color:#ffffff;stop-opacity:1;"
         offset="0"
         id="stop3227" />
      <stop
         style="stop-color:#aeaeae;stop-opacity:1;"
         offset="1"
         id="stop3229" />
    </linearGradient>
    <radialGradient
       r="1.7246193"
       fy="2.6743078"
       fx="49.011971"
       cy="2.6743078"
       cx="49.011971"
       gradientTransform="matrix(1.558136,0,0,0.189612,-64.19767,-168.6522)"
       gradientUnits="userSpaceOnUse"
       id="radialGradient31076"
       xlink:href="#linearGradient3207"
       inkscape:collect="always" />
    <linearGradient
       id="linearGradient3207">
      <stop
         style="stop-color:#ffffff;stop-opacity:1;"
         offset="0"
         id="stop3209" />
      <stop
         style="stop-color:#252525;stop-opacity:0;"
         offset="1"
         id="stop3211" />
    </linearGradient>
    <linearGradient
       y2="2.3657269"
       x2="48.732723"
       y1="0.81150496"
       x1="48.498562"
       gradientTransform="matrix(1.140533,1.061585,-1.057717,1.144704,69.92038,-170.2666)"
       gradientUnits="userSpaceOnUse"
       id="linearGradient31078"
       xlink:href="#linearGradient3260"
       inkscape:collect="always" />
    <linearGradient
       y2="72.62355"
       x2="85.536232"
       y1="72.62355"
       x1="50.971485"
       gradientTransform="matrix(0.780224,0,0,0.839022,24.2945,-119.8475)"
       gradientUnits="userSpaceOnUse"
       id="linearGradient31080"
       xlink:href="#linearGradient3346"
       inkscape:collect="always" />
    <linearGradient
       gradientUnits="userSpaceOnUse"
       y2="72.62355"
       x2="85.536232"
       y1="72.62355"
       x1="50.971485"
       gradientTransform="scale(0.964324,1.036996)"
       inkscape:collect="always"
       id="linearGradient3346">
      <stop
         style="stop-color:#ffffff;stop-opacity:1;"
         offset="0"
         id="stop6469" />
      <stop
         style="stop-color:#ffffff;stop-opacity:0;"
         offset="1"
         id="stop3350" />
    </linearGradient>
    <radialGradient
       r="1.7246193"
       fy="2.6743078"
       fx="49.011971"
       cy="2.6743078"
       cx="49.011971"
       gradientTransform="matrix(1.068575,0,0,0.129196,-70.28166,-169.0995)"
       gradientUnits="userSpaceOnUse"
       id="radialGradient31082"
       xlink:href="#linearGradient3207"
       inkscape:collect="always" />
    <radialGradient
       r="1.7246193"
       fy="2.6743078"
       fx="49.011971"
       cy="2.6743078"
       cx="49.011971"
       gradientTransform="matrix(1.068574,0,0,0.129196,-85.14742,-168.8884)"
       gradientUnits="userSpaceOnUse"
       id="radialGradient31084"
       xlink:href="#linearGradient3207"
       inkscape:collect="always" />
  </defs>
  <sodipodi:namedview
     id="base"
     pagecolor="#ffffff"
     bordercolor="#666666"
     borderopacity="1.0"
     inkscape:pageopacity="0.0"
     inkscape:pageshadow="2"
     inkscape:zoom="1.8671875"
     inkscape:cx="157.79223"
     inkscape:cy="51.469136"
     inkscape:document-units="px"
     inkscape:current-layer="layer1"
     width="128px"
     height="128px"
     showgrid="false"
     inkscape:grid-points="true"
     showguides="true"
     inkscape:guide-bbox="true"
     inkscape:window-width="1920"
     inkscape:window-height="1017"
     inkscape:window-x="0"
     inkscape:window-y="34"
     inkscape:window-maximized="1"
     units="px">
    <inkscape:grid
       type="xygrid"
       id="grid2576"
       spacingx="4px"
       spacingy="4px"
       empspacing="2" />
    <inkscape:grid
       id="GridFromPre046Settings"
       type="xygrid"
       originx="0px"
       originy="0px"
       spacingx="4px"
       spacingy="4px"
       color="#3f3fff"
       empcolor="#3f3fff"
       opacity="0.15"
       empopacity="0.38"
       empspacing="2" />
  </sodipodi:namedview>
  <metadata
     id="metadata2611">
    <rdf:RDF>
      <cc:Work
         rdf:about="">
        <dc:format>image/svg+xml</dc:format>
        <dc:type
           rdf:resource="http://purl.org/dc/dcmitype/StillImage" />
        <dc:title></dc:title>
      </cc:Work>
    </rdf:RDF>
  </metadata>
  <g
     inkscape:label="Livello 1"
     inkscape:groupmode="layer"
     id="layer1">
    <g
       transform="translate(400.98195,-23.59668)"
       id="g3232"
       inkscape:label="fill text" />
    <g
       transform="translate(400.98195,-23.59668)"
       id="g4591"
       inkscape:label="fill text" />
    <path
       inkscape:connector-curvature="0"
       d="m -73.346086,209.47001 0,-2.79471 0,2.79471 z"
       id="path8227"
       style="fill:#ffffff;fill-opacity:0.75688076;fill-rule:nonzero;stroke:none;stroke-width:0.5;stroke-linecap:round;stroke-linejoin:round;stroke-miterlimit:4;stroke-dasharray:none;stroke-dashoffset:4;stroke-opacity:1"
       sodipodi:nodetypes="ccc" />
    <path
       inkscape:connector-curvature="0"
       sodipodi:nodetypes="ccc"
       id="path2276"
       d="m 401.41695,45.65628 0,-2.79471 0,2.79471 z"
       style="fill:#ffffff;fill-opacity:0.75688076;fill-rule:nonzero;stroke:none;stroke-width:0.5;stroke-linecap:round;stroke-linejoin:round;stroke-miterlimit:4;stroke-dasharray:none;stroke-dashoffset:4;stroke-opacity:1" />
    <path
       inkscape:connector-curvature="0"
       sodipodi:nodetypes="ccc"
       id="path1561"
       d="m 435.79251,99.04996 0,-1.52674 0,1.52674 z"
       style="fill:#ffffff;fill-opacity:0.75688076;fill-rule:nonzero;stroke:none;stroke-width:0.5;stroke-linecap:round;stroke-linejoin:round;stroke-miterlimit:4;stroke-dasharray:none;stroke-dashoffset:4;stroke-opacity:1" />
    <path
       inkscape:connector-curvature="0"
       sodipodi:nodetypes="ccc"
       id="path6603"
       d="m -21.999206,146.30684 0,-2.68044 0,2.68044 z"
       style="fill:#ffffff;fill-opacity:0.75688076;fill-rule:nonzero;stroke:none;stroke-width:0.5;stroke-linecap:round;stroke-linejoin:round;stroke-miterlimit:4;stroke-dasharray:none;stroke-dashoffset:4;stroke-opacity:1" />
    <path
       inkscape:connector-curvature="0"
       sodipodi:nodetypes="ccc"
       id="path3507"
       d="m -7.5333259,18.48512 0,-2.26117 0,2.26117 z"
       style="fill:#ffffff;fill-opacity:0.75688076;fill-rule:nonzero;stroke:none;stroke-width:0.5;stroke-linecap:round;stroke-linejoin:round;stroke-miterlimit:4;stroke-dasharray:none;stroke-dashoffset:4;stroke-opacity:1" />
    <g
       id="g31041"
       transform="matrix(1.3801254,0,0,1.2632825,-48.532154,152.48438)">
      <path
         inkscape:connector-curvature="0"
         sodipodi:nodetypes="czccccc"
         id="path3180"
         d="m 118.49434,-119.51907 c 0.43243,-0.46801 3.22063,-0.19609 6.14869,2.52929 2.95679,2.7521 3.51723,5.37719 2.97555,5.96339 -0.35256,0.38157 -0.70513,0.76314 -1.05769,1.14471 -3.04144,-2.8309 -6.08285,-5.66179 -9.12427,-8.49268 0.35256,-0.38157 0.70513,-0.76314 1.05772,-1.14471 0,0 0,0 0,0"
         style="fill:#000000;fill-opacity:1;fill-rule:evenodd;stroke:none;stroke-width:1px;stroke-linecap:butt;stroke-linejoin:miter;stroke-opacity:1" />
      <path
         inkscape:connector-curvature="0"
         style="fill:#000000;fill-opacity:1;fill-rule:evenodd;stroke:#000000;stroke-width:0;stroke-linecap:butt;stroke-linejoin:miter;stroke-miterlimit:4;stroke-dasharray:none;stroke-opacity:1"
         d="m 35.339626,-20.200778 24.865617,-17.726905 0.140978,-0.152578 -8.974499,-8.654771 -0.191087,0.206723 -15.841009,26.327531 z"
         id="path3299"
         sodipodi:nodetypes="cccccc" />
      <path
         inkscape:connector-curvature="0"
         sodipodi:nodetypes="cccccc"
         id="path2247"
         d="m 36.776822,-21.647033 23.18826,-16.521063 0.140969,-0.15257 -8.494159,-8.173962 -0.191097,0.20673 -14.643973,24.640865 z"
         style="fill:url(#radialGradient31062);fill-opacity:1;fill-rule:evenodd;stroke:#000000;stroke-width:0;stroke-linecap:butt;stroke-linejoin:miter;stroke-miterlimit:4;stroke-dasharray:none;stroke-opacity:1" />
      <path
         inkscape:connector-curvature="0"
         sodipodi:nodetypes="csccccsz"
         id="rect2192"
         d="m 55.04575,-41.527373 c 1.125406,1.047499 2.276247,0.654804 2.678532,1.029232 0.06501,0.06051 0.108176,0.143128 0.138736,0.231438 l 66.911322,-72.555377 -4.42291,-4.11675 -67.038353,72.692836 c 0.2017,-0.01626 0.380584,-0.0038 0.507819,0.114652 0.3677,0.342257 0.09423,1.551597 1.224854,2.603969 z"
         style="fill:url(#radialGradient31064);fill-opacity:1;fill-rule:nonzero;stroke:none;stroke-width:0.5;stroke-linecap:round;stroke-linejoin:round;stroke-miterlimit:4;stroke-dasharray:none;stroke-dashoffset:4;stroke-opacity:1" />
      <path
         inkscape:connector-curvature="0"
         sodipodi:nodetypes="ccsccc"
         style="opacity:0.35348834;fill:#000000;fill-opacity:1;fill-rule:nonzero;stroke:none;stroke-width:0.5;stroke-linecap:round;stroke-linejoin:round;stroke-miterlimit:4;stroke-dasharray:none;stroke-dashoffset:4;stroke-opacity:1"
         d="m 60.251272,-43.176418 -2.62007,2.835535 c 0.35163,0.386713 -0.130751,1.451962 0.545135,2.081053 0.728396,0.677984 1.519258,-0.09047 1.99261,0.344963 l 2.651826,-2.869934 -2.569501,-2.391617 z"
         id="path2233" />
      <path
         inkscape:connector-curvature="0"
         id="rect2190"
         d="m 124.61286,-112.97237 -66.8605,72.500374 c 0.35356,0.388529 -0.0063,1.32394 0.673066,1.956243 0.732111,0.681463 1.402065,0.0443 1.877818,0.481982 l 66.892256,-72.534729 -2.58264,-2.40387 z"
         style="fill:url(#radialGradient31066);fill-opacity:1;fill-rule:nonzero;stroke:none;stroke-width:0.5;stroke-linecap:round;stroke-linejoin:round;stroke-miterlimit:4;stroke-dasharray:none;stroke-dashoffset:4;stroke-opacity:1"
         sodipodi:nodetypes="ccsccc" />
      <path
         inkscape:connector-curvature="0"
         sodipodi:nodetypes="cccccccccc"
         style="opacity:0.38604653;fill:#252525;fill-opacity:1;fill-rule:nonzero;stroke:none;stroke-width:0.5;stroke-linecap:round;stroke-linejoin:round;stroke-miterlimit:4;stroke-dasharray:none;stroke-dashoffset:4;stroke-opacity:1"
         d="m 55.094665,-45.508617 -1.344037,1.454573 -0.0509,0.05384 c 0.300336,0.29836 -0.138311,1.382164 0.825466,2.457064 l 0.05617,0.05227 0.400168,0.372468 0.05617,0.05228 c 1.151137,0.893661 2.194539,0.353908 2.596811,0.728324 l 1.423442,-1.548539 -3.963279,-3.622276 z"
         id="path2231" />
      <path
         inkscape:connector-curvature="0"
         sodipodi:nodetypes="ccsccccccc"
         style="opacity:0.35348834;fill:#131313;fill-opacity:1;fill-rule:nonzero;stroke:none;stroke-width:0.5;stroke-linecap:round;stroke-linejoin:round;stroke-miterlimit:4;stroke-dasharray:none;stroke-dashoffset:4;stroke-opacity:1"
         d="m 52.538737,-47.916198 -1.360544,1.391708 c 0.0141,0.01306 -0.09695,0.134319 -0.08279,0.147497 0.288704,0.268713 -0.111805,1.351988 0.368344,1.98432 l 0.04914,0.04573 0.217629,0.202579 0.02809,0.02612 c 0.679884,0.455034 1.592535,-0.111156 1.941119,0.118034 l 1.408511,-1.524342 -2.569499,-2.391648 z"
         id="path2229" />
      <path
         inkscape:connector-curvature="0"
         sodipodi:nodetypes="cccccsz"
         id="rect1315"
         d="m 51.874077,-44.517585 c 0.708614,0.644289 1.57171,0.0371 1.946819,0.386243 l 66.860514,-72.500368 -2.61017,-2.42947 -66.892268,72.534738 c 0.01433,0.01326 0.02841,0.02644 0.04278,0.03984 0.293274,0.272963 -0.06159,1.319769 0.652323,1.969019 z"
         style="fill:url(#linearGradient31068);fill-opacity:1;fill-rule:nonzero;stroke:none;stroke-width:0.5;stroke-linecap:round;stroke-linejoin:round;stroke-miterlimit:4;stroke-dasharray:none;stroke-dashoffset:4;stroke-opacity:1" />
      <rect
         transform="matrix(0.732512,0.680755,-0.680755,0.732512,0,0)"
         y="-168.16968"
         x="5.4500041"
         height="2.9295313"
         width="12.461839"
         id="rect2069"
         style="fill:#000000;fill-opacity:1;stroke:none;stroke-width:1;stroke-linecap:round;stroke-linejoin:round;stroke-miterlimit:4;stroke-dasharray:none;stroke-dashoffset:4;stroke-opacity:1" />
      <ellipse
         ry="0.97142172"
         rx="47.495197"
         cy="7.4622769"
         cx="34.677639"
         transform="matrix(0.57689,-0.623982,-1.184771,-1.099143,81.06275,-58.74891)"
         id="path3301"
         style="fill:url(#radialGradient31070);fill-opacity:1;fill-rule:nonzero;stroke:none;stroke-width:0.2;stroke-linecap:round;stroke-linejoin:round;stroke-miterlimit:4;stroke-dasharray:none;stroke-dashoffset:4;stroke-opacity:1" />
      <path
         sodipodi:open="true"
         sodipodi:end="6.2517655"
         sodipodi:start="0"
         sodipodi:type="arc"
         style="fill:url(#radialGradient31072);fill-opacity:1;fill-rule:nonzero;stroke:none;stroke-width:0.2;stroke-linecap:round;stroke-linejoin:round;stroke-miterlimit:4;stroke-dasharray:none;stroke-dashoffset:4;stroke-opacity:1"
         id="path3321"
         sodipodi:cx="34.677639"
         sodipodi:cy="7.4622769"
         sodipodi:rx="71.883232"
         sodipodi:ry="0.4230493"
         d="M 106.56087,7.4622769 A 71.883232,0.4230493 0 0 1 35.242273,7.8853132 71.883232,0.4230493 0 0 1 -37.196723,7.4689227 71.883232,0.4230493 0 0 1 32.983878,7.0393451 71.883232,0.4230493 0 0 1 106.52539,7.448987"
         transform="matrix(0.477686,-0.518489,-0.858163,-0.799379,76.54031,-56.19599)" />
      <path
         inkscape:connector-curvature="0"
         style="fill:url(#radialGradient31074);fill-opacity:1;fill-rule:nonzero;stroke:none;stroke-width:0.5;stroke-linecap:round;stroke-linejoin:round;stroke-miterlimit:4;stroke-dasharray:none;stroke-dashoffset:4;stroke-opacity:1"
         d="m 113.81596,-114.4479 c -1.28946,0.8091 -2.51157,2.21945 -3.16807,3.42861 l 7.33514,6.76532 3.16806,-3.4286 -7.33513,-6.76533 z m 6.56421,6.04778 -3.16806,3.42861 2.5697,2.39181 c 1.12321,-0.67525 2.41197,-2.01887 3.16807,-3.4286 l -2.56971,-2.39182 z"
         id="path2274"
         sodipodi:nodetypes="cccccccccc" />
      <path
         inkscape:connector-curvature="0"
         sodipodi:nodetypes="cccc"
         id="path2265"
         d="m 46.031943,-27.788115 c -1.668739,-0.164108 -3.102835,-2.693724 -4.025722,-3.46765 l -6.665277,11.049421 10.690999,-7.581771 z"
         style="fill:#000000;fill-opacity:1;fill-rule:evenodd;stroke:none;stroke-width:0;stroke-linecap:butt;stroke-linejoin:miter;stroke-miterlimit:4;stroke-dasharray:none;stroke-opacity:1" />
      <rect
         transform="matrix(0.731987,0.681319,-0.678649,0.734463,0,0)"
         y="-168.61739"
         x="9.482482"
         height="1.1767515"
         width="5.3743849"
         id="rect3205"
         style="fill:url(#radialGradient31076);fill-opacity:1;fill-rule:nonzero;stroke:none;stroke-width:0;stroke-linecap:round;stroke-linejoin:round;stroke-miterlimit:4;stroke-dasharray:none;stroke-dashoffset:4;stroke-opacity:1" />
      <path
         inkscape:connector-curvature="0"
         sodipodi:nodetypes="cszsss"
         id="path3233"
         d="m 123.72876,-117.59981 c 1.89451,1.51265 3.2318,3.57968 3.30403,3.77726 0.0722,0.19758 -1.75542,-2.12032 -3.32359,-3.1938 -1.55618,-1.06527 -3.75404,-1.12756 -3.91441,-1.25677 -0.16036,-0.12922 -1.23984,-1.30923 -0.2439,-1.24989 1.04171,0.0621 2.71454,0.7559 4.17787,1.9232 z"
         style="fill:url(#linearGradient31078);fill-opacity:1;fill-rule:evenodd;stroke:none;stroke-width:1px;stroke-linecap:butt;stroke-linejoin:miter;stroke-opacity:1" />
      <path
         inkscape:connector-curvature="0"
         id="text3284"
         d="m 65.171241,-46.548711 c -0.205922,0.222627 -0.322216,0.435718 -0.348911,0.639265 -0.02669,0.203583 0.03875,0.378764 0.196314,0.525572 0.156903,0.146187 0.335498,0.198366 0.535777,0.156562 0.200285,-0.04185 0.403377,-0.174046 0.609291,-0.396664 0.207097,-0.223897 0.323972,-0.437614 0.350673,-0.641187 0.02669,-0.203572 -0.03843,-0.378434 -0.195322,-0.524629 -0.157575,-0.146816 -0.336495,-0.199298 -0.536774,-0.157477 -0.200282,0.04182 -0.40396,0.174669 -0.611048,0.398558 m -0.279414,-0.260353 c 0.421192,-0.455348 0.819884,-0.747978 1.196098,-0.877865 0.3762,-0.129886 0.685494,-0.08191 0.92785,0.143901 0.241692,0.225206 0.31197,0.530881 0.210841,0.917066 -0.10114,0.38619 -0.3623,0.806956 -0.783492,1.262321 -0.420016,0.45408 -0.818707,0.74671 -1.196096,0.877868 -0.376204,0.12988 -0.685152,0.08223 -0.926854,-0.142973 -0.242354,-0.225808 -0.31297,-0.531815 -0.211829,-0.917988 0.102305,-0.387453 0.363465,-0.80822 0.783482,-1.26233 m 3.94962,-2.742025 1.672202,-0.271779 -0.703741,0.760843 -1.123229,0.186255 -0.09645,1.13238 -0.707237,0.764614 0.14591,-1.693845 -1.606046,0.262755 0.705489,-0.762729 1.05558,-0.171589 0.0904,-1.067361 0.708999,-0.766521 -0.141877,1.626977 m 0.215585,-1.706669 0.738832,-0.798768 1.129468,-0.148673 0.0639,-1.141517 0.740586,-0.800664 -0.133279,1.885792 0.629947,0.586931 -0.675667,0.730488 -0.629935,-0.586953 -1.863849,0.273364 m 6.701556,-4.459313 c -0.121752,0.225683 -0.261607,0.447438 -0.41958,0.665265 -0.157978,0.21784 -0.333492,0.431111 -0.526531,0.639809 -0.436403,0.471805 -0.851557,0.780874 -1.245486,0.927231 -0.394588,0.145743 -0.711064,0.107549 -0.949422,-0.114528 -0.241035,-0.224577 -0.300778,-0.541655 -0.179244,-0.951217 0.121521,-0.40959 0.408099,-0.85849 0.859696,-1.346735 0.174332,-0.188469 0.350399,-0.360015 0.528208,-0.514616 0.17898,-0.155873 0.357608,-0.293206 0.535894,-0.412069 l 0.309465,0.288356 c -0.193653,0.113937 -0.374699,0.238443 -0.543144,0.373512 -0.16727,0.133798 -0.323457,0.279142 -0.468525,0.435983 -0.269092,0.29092 -0.433689,0.555558 -0.493811,0.793914 -0.05961,0.236483 -0.0096,0.429067 0.149933,0.577729 0.158232,0.147445 0.350623,0.18538 0.57715,0.11385 0.226515,-0.07154 0.469051,-0.247068 0.727622,-0.52662 0.07019,-0.07588 0.132781,-0.148257 0.187783,-0.217138 0.05549,-0.07074 0.101897,-0.13703 0.13917,-0.198839 l -0.290426,-0.270616 -0.412421,0.445882 -0.258373,-0.240745 1.052967,-1.138391 0.719075,0.669983 m -0.790894,-1.930875 1.823391,-1.971322 0.291427,0.271524 -1.147737,1.240854 0.278418,0.259412 1.079294,-1.166856 0.291433,0.271536 -1.079294,1.166856 0.342516,0.319136 1.186345,-1.282589 0.291434,0.271537 -1.862006,2.013073 -1.495221,-1.393161 m 2.45693,-2.656265 0.754625,-0.815853 1.978465,-0.07473 -1.025526,-0.955517 0.640555,-0.692519 1.495226,1.393156 -0.754629,0.815855 -1.978468,0.07472 1.025532,0.95553 -0.640555,0.692518 -1.495225,-1.393157 m 4.253992,-4.599119 0.754627,-0.815841 1.978461,-0.07474 -1.025524,-0.955507 0.640554,-0.692531 1.495225,1.393157 -0.754624,0.815854 -1.978471,0.07472 1.025532,0.955532 -0.640554,0.692519 -1.495226,-1.393158 m 3.661858,-4.013375 c 0.249207,-0.269409 0.482808,-0.447395 0.700825,-0.53393 0.219192,-0.08778 0.392205,-0.07259 0.519066,0.04561 0.12685,0.118196 0.155048,0.289298 0.08459,0.513304 -0.07046,0.22402 -0.230879,0.471365 -0.481251,0.742046 -0.250372,0.270692 -0.484818,0.450244 -0.703341,0.538651 -0.217347,0.08715 -0.389454,0.07163 -0.516303,-0.04657 -0.126862,-0.118195 -0.155383,-0.28961 -0.08559,-0.514246 0.07097,-0.225894 0.231642,-0.474175 0.482008,-0.744868 m 0.225378,1.66537 1.444323,-1.561495 0.200293,0.186618 -1.444324,1.561506 -0.200292,-0.186629 m -0.05513,-1.506741 c -0.09827,0.106261 -0.153286,0.208073 -0.165048,0.30544 -0.01059,0.09612 0.02284,0.18025 0.100296,0.252411 0.07745,0.07216 0.163193,0.09907 0.257239,0.08072 0.09521,-0.01961 0.191959,-0.08254 0.29023,-0.188806 0.09711,-0.104975 0.151291,-0.205211 0.162549,-0.300706 0.01242,-0.09675 -0.0201,-0.18121 -0.09754,-0.253373 -0.07745,-0.07216 -0.164114,-0.09874 -0.259996,-0.07976 -0.09471,0.01774 -0.190615,0.0791 -0.287728,0.184071 m 4.476898,-3.74146 c 0.2027,-0.166727 0.382065,-0.269253 0.538081,-0.307578 0.156525,-0.0402 0.284528,-0.01396 0.384012,0.07873 0.148217,0.138099 0.161605,0.350743 0.04016,0.637934 -0.122116,0.286572 -0.373878,0.636034 -0.755282,1.048383 -0.134548,0.145463 -0.276016,0.285654 -0.424426,0.420557 -0.14656,0.134267 -0.298294,0.261356 -0.455197,0.381275 l -0.297453,-0.27715 c 0.162414,-0.103004 0.314972,-0.212848 0.457681,-0.329507 0.143212,-0.118547 0.275078,-0.24296 0.395583,-0.37324 0.179001,-0.193527 0.298199,-0.358006 0.357582,-0.493431 0.06054,-0.136695 0.05777,-0.23583 -0.0083,-0.297422 -0.0681,-0.06345 -0.16865,-0.05823 -0.301644,0.01567 -0.132496,0.07202 -0.294091,0.211114 -0.484794,0.417291 l -0.270262,0.292186 -0.248368,-0.231413 0.284301,-0.307367 c 0.169644,-0.183406 0.280978,-0.334006 0.333998,-0.451815 0.05236,-0.118417 0.04749,-0.206558 -0.0146,-0.264407 -0.05743,-0.05351 -0.142183,-0.05123 -0.254298,0.0068 -0.112105,0.05804 -0.241863,0.166749 -0.389287,0.326117 -0.1088,0.117643 -0.211765,0.243076 -0.308896,0.376292 -0.09712,0.133239 -0.186986,0.272051 -0.269593,0.41645 l -0.282415,-0.263137 c 0.112008,-0.164104 0.228189,-0.32196 0.348543,-0.473589 0.120353,-0.151614 0.243715,-0.295724 0.370065,-0.43234 0.340463,-0.368069 0.626969,-0.613336 0.859544,-0.735757 0.233073,-0.124307 0.413703,-0.126742 0.541895,-0.0073 0.08746,0.0815 0.118877,0.192021 0.09423,0.331549 -0.02532,0.138901 -0.1056,0.304313 -0.240838,0.496218"
         style="font-style:normal;font-variant:normal;font-weight:bold;font-stretch:normal;font-size:12px;line-height:125%;font-family:'Bitstream Vera Sans';text-align:start;writing-mode:lr-tb;text-anchor:start;fill:url(#linearGradient31080);fill-opacity:1;stroke:none;stroke-width:1px;stroke-linecap:butt;stroke-linejoin:miter;stroke-opacity:1" />
      <rect
         style="fill:url(#radialGradient31082);fill-opacity:1;fill-rule:nonzero;stroke:none;stroke-width:0;stroke-linecap:round;stroke-linejoin:round;stroke-miterlimit:4;stroke-dasharray:none;stroke-dashoffset:4;stroke-opacity:1"
         id="rect2956"
         width="3.6857667"
         height="0.80180275"
         x="-19.751652"
         y="-169.07549"
         transform="matrix(0.685219,0.728337,-0.782272,0.622936,0,0)" />
      <rect
         transform="matrix(-0.743171,-0.669101,-0.605652,0.79573,0,0)"
         y="-168.86479"
         x="-34.617409"
         height="0.80180055"
         width="3.6857619"
         id="rect2961"
         style="fill:url(#radialGradient31084);fill-opacity:1;fill-rule:nonzero;stroke:none;stroke-width:0;stroke-linecap:round;stroke-linejoin:round;stroke-miterlimit:4;stroke-dasharray:none;stroke-dashoffset:4;stroke-opacity:1" />
    </g>
  </g>
</svg>
