<?xml version="1.0" encoding="UTF-8" standalone="no"?>
<!-- Generator: Adobe Illustrator 12.0.0, SVG Export Plug-In . SVG Version: 6.00 Build 51448)  -->

<svg
   xmlns:dc="http://purl.org/dc/elements/1.1/"
   xmlns:cc="http://creativecommons.org/ns#"
   xmlns:rdf="http://www.w3.org/1999/02/22-rdf-syntax-ns#"
   xmlns:svg="http://www.w3.org/2000/svg"
   xmlns="http://www.w3.org/2000/svg"
   xmlns:xlink="http://www.w3.org/1999/xlink"
   xmlns:sodipodi="http://sodipodi.sourceforge.net/DTD/sodipodi-0.dtd"
   xmlns:inkscape="http://www.inkscape.org/namespaces/inkscape"
   version="1.0"
   id="Livello_1"
   viewBox="0 0 128 128"
   overflow="visible"
   enable-background="new 0 0 139 139"
   xml:space="preserve"
   sodipodi:version="0.32"
   inkscape:version="0.91 r13725"
   sodipodi:docname="messagebox-query-icon.svg"
   inkscape:output_extension="org.inkscape.output.svgz.inkscape"
   style="overflow:visible"><metadata
     id="metadata3164"><rdf:RDF><cc:Work
         rdf:about=""><dc:format>image/svg+xml</dc:format><dc:type
           rdf:resource="http://purl.org/dc/dcmitype/StillImage" /><dc:title /></cc:Work></rdf:RDF></metadata><defs
     id="defs3162"><filter
       inkscape:collect="always"
       x="-0.132641"
       width="1.265282"
       y="-0.34752154"
       height="1.6950431"
       id="filter3547"><feGaussianBlur
         inkscape:collect="always"
         stdDeviation="2.7512044"
         id="feGaussianBlur3549" /></filter><filter
       inkscape:collect="always"
       x="-0.143268"
       width="1.286536"
       y="-0.072184406"
       height="1.1443688"
       id="filter5125"><feGaussianBlur
         inkscape:collect="always"
         stdDeviation="1.91024"
         id="feGaussianBlur5127" /></filter></defs><sodipodi:namedview
     inkscape:window-height="697"
     inkscape:window-width="1024"
     inkscape:pageshadow="2"
     inkscape:pageopacity="0.0"
     guidetolerance="10.0"
     gridtolerance="10.0"
     objecttolerance="10.0"
     borderopacity="1.0"
     bordercolor="#666666"
     pagecolor="#ffffff"
     id="base"
     inkscape:zoom="2.9352518"
     inkscape:cx="99.496726"
     inkscape:cy="69.329657"
     inkscape:window-x="0"
     inkscape:window-y="34"
     inkscape:current-layer="Livello_1"
     height="128px"
     width="128px"
     showgrid="false"
     inkscape:window-maximized="0" /><filter
     id="AI_Sfocatura_4"><feGaussianBlur
       stdDeviation="4"
       id="feGaussianBlur3096" /></filter><filter
     id="AI_Sfocatura_2"><feGaussianBlur
       stdDeviation="2"
       id="feGaussianBlur3099" /></filter><radialGradient
     id="XMLID_12_"
     cx="69.600098"
     cy="69.576698"
     r="58"
     gradientTransform="matrix(1,0,0,-0.1823,0,134.8566)"
     gradientUnits="userSpaceOnUse"><stop
       offset="0"
       style="stop-color:#000000"
       id="stop3102" /><stop
       offset="1"
       style="stop-color:#000000;stop-opacity:0;"
       id="stop3104" /></radialGradient><radialGradient
     id="XMLID_13_"
     cx="69.600098"
     cy="69.600098"
     r="58"
     gradientUnits="userSpaceOnUse"><stop
       offset="0.6154"
       style="stop-color:#EEEEEE"
       id="stop3113" /><stop
       offset="0.8225"
       style="stop-color:#DDDDDD"
       id="stop3115" /><stop
       offset="1"
       style="stop-color:#FFFFFF"
       id="stop3117" /></radialGradient><linearGradient
     id="XMLID_14_"
     gradientUnits="userSpaceOnUse"
     x1="27.6001"
     y1="69.600098"
     x2="111.6001"
     y2="69.600098"
     gradientTransform="matrix(1.5748185,0,0,1.5787106,-39.600329,-40.351859)"><stop
       offset="0"
       style="stop-color:#2A94EC"
       id="stop3122" /><stop
       offset="1"
       style="stop-color:#0057AE"
       id="stop3124" /></linearGradient><path
     d="m 3.864662,69.526393 c 0,36.561357 29.671156,66.305847 66.142377,66.305847 36.471221,0 66.142371,-29.74449 66.142371,-66.305847 0,-36.561356 -29.67115,-66.3058397 -66.142371,-66.3058397 -36.471221,0 -66.142377,29.7444837 -66.142377,66.3058397 z"
     id="path3126"
     style="fill:url(#XMLID_14_)"
     inkscape:connector-curvature="0" /><g
     id="circle22111"
     cy="92"
     rx="36"
     ry="36"
     cx="343.99899"
     enable-background="new    "
     style="opacity:0.3;filter:url(#filter3547)"
     transform="matrix(1.5748185,0,0,1.5787106,-39.600329,-40.351859)"><path
       d="M 77.041,104.759 C 63.767,106.115 50.122,103.11 46.565,98.042 43.007,92.976 50.885,87.768 64.16,86.41 c 13.274,-1.356 26.919,1.648 30.477,6.716 3.556,5.068 -4.322,10.275 -17.596,11.633 z"
       id="path3129"
       style="fill:#a8dde0"
       inkscape:connector-curvature="0" /></g><linearGradient
     id="circle16776_1_"
     gradientUnits="userSpaceOnUse"
     x1="135.5601"
     y1="417.66461"
     x2="161.87621"
     y2="417.66461"
     gradientTransform="matrix(0,2.512202,2.5060086,0,-976.6646,-346.31921)"><stop
       offset="0"
       style="stop-color:#FFFFFF"
       id="stop3132" /><stop
       offset="1"
       style="stop-color:#ffffff;stop-opacity:0;"
       id="stop3134" /></linearGradient><path
     id="circle16776"
     enable-background="new    "
     d="m 70.007039,6.6337256 c -31.009751,0 -56.92339,21.3773194 -63.1675447,49.8398914 12.4489397,11.328827 36.0696437,-5.80176 63.1675447,-5.80176 27.097903,0 50.720171,17.130587 63.167531,5.80176 C 126.93042,28.011045 101.01836,6.6337256 70.007039,6.6337256 Z"
     style="opacity:0.8;fill:url(#circle16776_1_)"
     inkscape:connector-curvature="0" /><g
     id="g3137"
     transform="matrix(1.5748185,0,0,1.5787106,-39.600329,-40.351859)"><defs
       id="defs3139"><path
         id="XMLID_10_"
         d="m 27.6,69.6 c 0,23.159 18.841,42 42,42 23.159,0 42,-18.841 42,-42 0,-23.159 -18.841,-42 -42,-42 -23.159,0 -42,18.841 -42,42 z"
         inkscape:connector-curvature="0" /></defs><clipPath
       id="XMLID_6_"><use
         xlink:href="#XMLID_10_"
         id="use3143"
         x="0"
         y="0"
         width="139"
         height="139" /></clipPath><g
       clip-path="url(#XMLID_6_)"
       id="g3145"
       style="filter:url(#AI_Sfocatura_2)"><path
         d="m 27.6,69.6 c 0,23.159 18.841,42 42,42 23.159,0 42,-18.841 42,-42 0,-23.159 -18.841,-42 -42,-42 -23.159,0 -42,18.841 -42,42 z"
         id="path3147"
         style="fill:none;stroke:#00316e;stroke-width:2"
         inkscape:connector-curvature="0" /></g></g><g
     transform="matrix(1.5748185,0,0,1.6156977,-38.573548,-41.899548)"
     id="g5119"
     style="fill:#00316e;filter:url(#filter5125)"><path
       style="fill:#00316e"
       d="m 63.37,80.089 -0.178,-2.343 c -0.18,-4.598 1.248,-9.284 5.259,-14.062 2.853,-3.424 5.169,-6.398 5.169,-9.463 0,-3.064 -2.049,-5.227 -6.418,-5.318 -3.029,0 -6.506,0.992 -8.913,2.614 l -2.941,-9.733 c 3.208,-1.894 8.467,-3.696 14.885,-3.696 11.677,0 17.115,6.58 17.115,13.97 0,6.939 -4.279,11.357 -7.667,15.231 -3.209,3.605 -4.635,7.121 -4.546,11.177 l 0,1.622 -11.765,0 0,0.001 z"
       id="path5121"
       inkscape:connector-curvature="0" /><circle
       style="fill:#00316e"
       cx="69.599998"
       cy="93.599998"
       r="8"
       id="circle5123" /></g><g
     id="g5101"
     transform="matrix(1.5748185,0,0,1.5787106,-40.745423,-40.351859)"><path
       id="path3157"
       d="m 63.37,80.089 -0.178,-2.343 c -0.18,-4.598 1.248,-9.284 5.259,-14.062 2.853,-3.424 5.169,-6.398 5.169,-9.463 0,-3.064 -2.049,-5.227 -6.418,-5.318 -3.029,0 -6.506,0.992 -8.913,2.614 l -2.941,-9.733 c 3.208,-1.894 8.467,-3.696 14.885,-3.696 11.677,0 17.115,6.58 17.115,13.97 0,6.939 -4.279,11.357 -7.667,15.231 -3.209,3.605 -4.635,7.121 -4.546,11.177 l 0,1.622 -11.765,0 0,0.001 z"
       style="fill:#ffffff"
       inkscape:connector-curvature="0" /><circle
       id="circle3159"
       r="8"
       cy="93.599998"
       cx="69.599998"
       style="fill:#ffffff" /></g></svg>