<?xml version="1.0" encoding="UTF-8" standalone="no"?>
<!-- Created with Inkscape (http://www.inkscape.org/) -->

<svg
   xmlns:dc="http://purl.org/dc/elements/1.1/"
   xmlns:cc="http://creativecommons.org/ns#"
   xmlns:rdf="http://www.w3.org/1999/02/22-rdf-syntax-ns#"
   xmlns:svg="http://www.w3.org/2000/svg"
   xmlns="http://www.w3.org/2000/svg"
   xmlns:sodipodi="http://sodipodi.sourceforge.net/DTD/sodipodi-0.dtd"
   xmlns:inkscape="http://www.inkscape.org/namespaces/inkscape"
   id="svg2"
   xml:space="preserve"
   viewBox="0 0 90 90"
   version="1.1"
   inkscape:version="0.91 r13725"
   sodipodi:docname="properties-menu.svg"><defs
     id="defs13" /><sodipodi:namedview
     pagecolor="#ffffff"
     bordercolor="#666666"
     borderopacity="1"
     objecttolerance="10"
     gridtolerance="10"
     guidetolerance="10"
     inkscape:pageopacity="0"
     inkscape:pageshadow="2"
     inkscape:window-width="1920"
     inkscape:window-height="1017"
     id="namedview11"
     showgrid="false"
     inkscape:zoom="2.6222222"
     inkscape:cx="45"
     inkscape:cy="45"
     inkscape:window-x="0"
     inkscape:window-y="34"
     inkscape:window-maximized="1"
     inkscape:current-layer="svg2" /><metadata
     id="metadata8"><rdf:RDF><cc:Work
         rdf:about=""><dc:format>image/svg+xml</dc:format><dc:type
           rdf:resource="http://purl.org/dc/dcmitype/StillImage" /><dc:title /></cc:Work></rdf:RDF></metadata><g
     id="g10"
     transform="matrix(1.25 0 0 -1.25 -406.98 423.35)"><g
       fill="#eff0f1"
       id="g5"><rect
         id="rect4067"
         style="color:#000000"
         transform="scale(1,-1)"
         height="9.6"
         width="62.4"
         y="-326.68"
         x="330.38" /><rect
         id="rect4069"
         style="color:#000000"
         transform="scale(1,-1)"
         height="9.6"
         width="62.4"
         y="-307.48"
         x="330.38" /><rect
         id="rect4090"
         style="color:#000000"
         transform="scale(1,-1)"
         height="9.6"
         width="62.4"
         y="-288.28"
         x="330.38" /></g><rect
       id="rect4065"
       style="color:#000000"
       transform="scale(1,-1)"
       height="72"
       width="72"
       y="-338.68"
       x="325.58"
       fill="none" /></g><path
     style="fill:#4d4d4d;fill-opacity:1"
     d="m 6.1779657,20.936441 0,-5.911017 38.8983053,0 38.898305,0 0,5.911017 0,5.911017 -38.898305,0 -38.8983053,0 0,-5.911017 z"
     id="path3341"
     inkscape:connector-curvature="0" /><path
     style="fill:#4d4d4d;fill-opacity:1"
     d="m 6.1779657,44.961865 0,-5.911017 38.8983053,0 38.898305,0 0,5.911017 0,5.911017 -38.898305,0 -38.8983053,0 0,-5.911017 z"
     id="path3343"
     inkscape:connector-curvature="0" /><path
     style="fill:#4d4d4d;fill-opacity:1"
     d="m 6.1779657,68.987289 0,-5.911017 38.8983053,0 38.898305,0 0,5.911017 0,5.911016 -38.898305,0 -38.8983053,0 0,-5.911016 z"
     id="path3345"
     inkscape:connector-curvature="0" /></svg>