<?xml version="1.0" encoding="UTF-8" standalone="no"?>
<!-- Created with Inkscape (http://www.inkscape.org/) -->

<svg
   xmlns:dc="http://purl.org/dc/elements/1.1/"
   xmlns:cc="http://creativecommons.org/ns#"
   xmlns:rdf="http://www.w3.org/1999/02/22-rdf-syntax-ns#"
   xmlns:svg="http://www.w3.org/2000/svg"
   xmlns="http://www.w3.org/2000/svg"
   xmlns:xlink="http://www.w3.org/1999/xlink"
   xmlns:sodipodi="http://sodipodi.sourceforge.net/DTD/sodipodi-0.dtd"
   xmlns:inkscape="http://www.inkscape.org/namespaces/inkscape"
   id="svg1307"
   viewBox="0 0 128 128"
   version="1.0"
   inkscape:version="0.91 r13725"
   sodipodi:docname="purifier.svg">
  <sodipodi:namedview
     pagecolor="#ffffff"
     bordercolor="#666666"
     borderopacity="1"
     objecttolerance="10"
     gridtolerance="10"
     guidetolerance="10"
     inkscape:pageopacity="0"
     inkscape:pageshadow="2"
     inkscape:window-width="805"
     inkscape:window-height="784"
     id="namedview122"
     showgrid="false"
     inkscape:zoom="1.84375"
     inkscape:cx="64"
     inkscape:cy="64"
     inkscape:window-x="31"
     inkscape:window-y="111"
     inkscape:window-maximized="0"
     inkscape:current-layer="svg1307" />
  <defs
     id="defs1309">
    <linearGradient
       id="linearGradient3685">
      <stop
         id="stop3687"
         stop-color="#fcfcfc"
         offset="0" />
      <stop
         id="stop3689"
         stop-color="#fcfcfc"
         stop-opacity="0"
         offset="1" />
    </linearGradient>
    <linearGradient
       id="linearGradient3129"
       y2="135.08"
       gradientUnits="userSpaceOnUse"
       x2="-33.219"
       y1="-174.82"
       x1="108.79">
      <stop
         id="stop3113"
         stop-color="#d8b789"
         offset="0" />
      <stop
         id="stop3115"
         stop-color="#b17f3a"
         offset="1" />
    </linearGradient>
    <linearGradient
       id="linearGradient3131"
       y2="-23.219"
       gradientUnits="userSpaceOnUse"
       x2="73.43"
       gradientTransform="translate(8.6,0)"
       y1="-23.219"
       x1="-97.945">
      <stop
         id="stop3094"
         stop-color="#dcc0a1"
         offset="0" />
      <stop
         id="stop3096"
         stop-color="#dcc0a1"
         stop-opacity="0"
         offset="1" />
    </linearGradient>
    <linearGradient
       id="linearGradient3154"
       y2="33.209"
       gradientUnits="userSpaceOnUse"
       x2="60.356"
       y1="-54.914"
       x1="60.356">
      <stop
         id="stop3144"
         stop-color="#c2a27e"
         offset="0" />
      <stop
         id="stop3146"
         stop-color="#c2a27e"
         stop-opacity="0"
         offset="1" />
    </linearGradient>
    <radialGradient
       id="radialGradient3202"
       gradientUnits="userSpaceOnUse"
       cy="-29.344"
       cx="-352.86"
       gradientTransform="matrix(-0.23431,0.49101,-0.38358,-0.14843,-35.185,234.3)"
       r="91.928">
      <stop
         id="stop3198"
         stop-color="#bea57f"
         offset="0" />
      <stop
         id="stop3241"
         stop-color="#a6865c"
         offset=".5" />
      <stop
         id="stop3200"
         stop-color="#d8ac6e"
         offset="1" />
    </radialGradient>
    <linearGradient
       id="linearGradient3402"
       y2="-178.25"
       gradientUnits="userSpaceOnUse"
       x2="-275.78"
       gradientTransform="matrix(0.33548,0.11836,-0.11836,0.33548,158.11,128.53)"
       y1="-178.25"
       x1="-300.78">
      <stop
         id="stop3398"
         stop-color="#f0e0c7"
         offset="0" />
      <stop
         id="stop3406"
         stop-color="#c5b496"
         offset=".25" />
      <stop
         id="stop3404"
         stop-color="#9b7e56"
         offset=".5" />
      <stop
         id="stop3408"
         stop-color="#c9ad86"
         offset=".75" />
      <stop
         id="stop3400"
         stop-color="#e4ccab"
         offset="1" />
    </linearGradient>
    <filter
       id="filter3427">
      <feGaussianBlur
         id="feGaussianBlur3429"
         stdDeviation="0.095096535" />
    </filter>
    <filter
       id="filter3451">
      <feGaussianBlur
         id="feGaussianBlur3453"
         stdDeviation="0.020027675" />
    </filter>
    <filter
       id="filter3473">
      <feGaussianBlur
         id="feGaussianBlur3475"
         stdDeviation="0.14342474" />
    </filter>
    <linearGradient
       id="linearGradient3584"
       y2="85.547"
       gradientUnits="userSpaceOnUse"
       x2="124.22"
       gradientTransform="translate(3.5,1.1)"
       y1="121.79"
       x1="17.954">
      <stop
         id="stop3580"
         stop-color="#af8d5f"
         offset="0" />
      <stop
         id="stop3582"
         stop-color="#af8d5f"
         stop-opacity="0"
         offset="1" />
    </linearGradient>
    <filter
       id="filter3608">
      <feGaussianBlur
         id="feGaussianBlur3610"
         stdDeviation="0.39548387" />
    </filter>
    <linearGradient
       id="linearGradient3627"
       y2="79.262"
       gradientUnits="userSpaceOnUse"
       x2="73.812"
       gradientTransform="translate(4,3.1)"
       y1="79.262"
       x1="45.218">
      <stop
         id="stop3623"
         stop-color="#fff"
         offset="0" />
      <stop
         id="stop3625"
         stop-color="#fff"
         stop-opacity="0"
         offset="1" />
    </linearGradient>
    <linearGradient
       id="linearGradient3651"
       y2="67.017"
       gradientUnits="userSpaceOnUse"
       x2="63.377"
       gradientTransform="translate(4,1)"
       y1="60.871"
       x1="57.924">
      <stop
         id="stop3647"
         stop-color="#f4f0db"
         offset="0" />
      <stop
         id="stop3649"
         stop-color="#f4f0db"
         stop-opacity="0"
         offset="1" />
    </linearGradient>
    <linearGradient
       id="linearGradient3663"
       y2="-12.443"
       gradientUnits="userSpaceOnUse"
       x2="92.717"
       gradientTransform="matrix(0.94303,0.33272,-0.33272,0.94303,1.0387,5.0421)"
       y1="-57.658"
       x1="71.544">
      <stop
         id="stop3659"
         stop-color="#f4f0db"
         offset="0" />
      <stop
         id="stop3661"
         stop-color="#f4f0db"
         stop-opacity="0"
         offset="1" />
    </linearGradient>
    <linearGradient
       id="linearGradient3667"
       y2="1.4232"
       gradientUnits="userSpaceOnUse"
       x2="92.85"
       gradientTransform="matrix(0.94303,0.33272,-0.33272,0.94303,1.0387,5.0421)"
       y1="34.642"
       x1="108.73">
      <stop
         id="stop3671"
         offset="0" />
      <stop
         id="stop3673"
         stop-color="#f4f0db"
         stop-opacity="0"
         offset="1" />
    </linearGradient>
    <linearGradient
       id="linearGradient3691"
       y2="57.442"
       xlink:href="#linearGradient3685"
       gradientUnits="userSpaceOnUse"
       x2="75.719"
       gradientTransform="translate(4,3.5)"
       y1="57.442"
       x1="62.719" />
    <linearGradient
       id="linearGradient3699"
       y2="57.442"
       xlink:href="#linearGradient3685"
       gradientUnits="userSpaceOnUse"
       x2="75.719"
       gradientTransform="translate(3.1113,-3.7049)"
       y1="57.442"
       x1="62.719" />
    <linearGradient
       id="linearGradient5670"
       y2="20.049"
       gradientUnits="userSpaceOnUse"
       x2="-742.67"
       gradientTransform="matrix(0.3507,0.032833,0.045062,0.25892,323.23,103.36)"
       y1="20.049"
       x1="-781.86">
      <stop
         id="stop3266"
         stop-color="#fff"
         offset="0" />
      <stop
         id="stop3268"
         stop-color="#fff"
         stop-opacity="0"
         offset="1" />
    </linearGradient>
    <filter
       id="filter5696"
       height="1.3147"
       width="1.1204"
       y="-.15737"
       x="-.060210">
      <feGaussianBlur
         id="feGaussianBlur5698"
         stdDeviation="2.6569206" />
    </filter>
  </defs>
  <metadata
     id="metadata1312">
    <rdf:RDF>
      <cc:Work
         rdf:about="">
        <dc:format>image/svg+xml</dc:format>
        <dc:type
           rdf:resource="http://purl.org/dc/dcmitype/StillImage" />
        <cc:license
           rdf:resource="http://creativecommons.org/licenses/GPL/2.0/" />
        <dc:contributor>
          <cc:Agent>
            <dc:title>Oxygen team</dc:title>
          </cc:Agent>
        </dc:contributor>
        <dc:title></dc:title>
      </cc:Work>
      <cc:License
         rdf:about="http://creativecommons.org/licenses/LGPL/2.1/">
        <cc:permits
           rdf:resource="http://web.resource.org/cc/Reproduction" />
        <cc:permits
           rdf:resource="http://web.resource.org/cc/Distribution" />
        <cc:requires
           rdf:resource="http://web.resource.org/cc/Notice" />
        <cc:permits
           rdf:resource="http://web.resource.org/cc/DerivativeWorks" />
        <cc:requires
           rdf:resource="http://web.resource.org/cc/ShareAlike" />
        <cc:requires
           rdf:resource="http://web.resource.org/cc/SourceCode" />
      </cc:License>
    </rdf:RDF>
  </metadata>
  <g
     id="layer1"
     transform="matrix(0.99366519,0,0,1.0000651,-2.9768991,0.00129968)">
    <g
       id="g5646"
       transform="matrix(0.75644,0,0,0.75644,41.737,27.956)"
       style="opacity:0.88587" />
    <g
       id="g59">
      <path
         id="rect3386"
         d="m 89.182,2.3002 c 3.7956,-0.87319 6.2182,0.8068 8.3869,2.9591 l -18.091,51.275 -8.387,-2.959 18.091,-51.275 z"
         style="fill:url(#linearGradient3402);stroke:#000000;stroke-width:0.40000001;stroke-linecap:round;stroke-linejoin:round;stroke-dashoffset:4.1500001;stroke-opacity:0.45561996"
         inkscape:connector-curvature="0" />
      <path
         id="path3665"
         d="m 89.182,2.3002 c 3.7956,-0.87319 6.2182,0.8068 8.3869,2.9591 l -18.091,51.275 -8.387,-2.959 18.091,-51.275 z"
         style="fill:url(#linearGradient3667)"
         inkscape:connector-curvature="0" />
      <path
         id="path3655"
         d="m 89.182,2.3002 c 3.7956,-0.87319 6.2182,0.8068 8.3869,2.9591 l -18.091,51.275 -8.387,-2.959 18.091,-51.275 z"
         style="fill:url(#linearGradient3663)"
         inkscape:connector-curvature="0" />
      <path
         id="path3524"
         d="M 73.382,123.3 123.91,98.951 C 131.93,71.774 67.521,97.992 43.551,98.716 l -24.859,12.706 6.0767,-0.82864 6.5702,-2.483 -5.9699,4.4562 6.4825,-0.43531 0.0987,2.8815 2.1508,-4.1403 -3.5319,5.5213 c 0,0 -1.0253,1.7796 1.1844,0.95091 2.2097,-0.82864 7.9306,-0.12226 7.9306,-0.12226 l -3.5591,1.4157 9.912,-0.0346 2.4086,2.6612 9.7448,-0.1753 -4.9696,1.3943 3.5886,0.53916 -0.82864,1.1049 7.4578,-2.4859 -4.2043,4.5815 6.9665,-0.99068 -3.0383,1.9335 10.22,-3.867 z"
         style="fill:url(#linearGradient3584);fill-rule:evenodd;filter:url(#filter5696)"
         inkscape:connector-curvature="0" />
      <path
         id="path3194"
         d="m 66.645,50.081 c -3.5747,-0.85116 -1.6931,4.1987 -2.9386,5.9635 -1.1838,1.6775 -5.2858,1.7265 -7.1504,3.1839 -3.1672,2.4754 -5.7243,5.5232 -7.945,8.6142 -2.5142,3.4995 -3.8963,7.5711 -6.2598,11.157 -3.1417,4.7671 -6.6008,9.3938 -10.256,13.903 l -10.23,12.62 5.9704,-5.6797 -5.1151,6.3102 4.9669,-4.3057 -4.6422,6.171 2.6564,0.98265 2.0537,0.37576 0.44743,1.1428 -2.7072,1.5815 5.2153,1.4057 c 0,0 2.5194,-1.232 3.3353,-2.2566 0.81582,-1.0246 7.8152,-9.3603 7.8152,-9.3603 l -9.3494,11.969 3.6599,-0.39131 0.63515,0.79342 2.9739,1.3794 6.3063,-8.0336 -4.3176,8.0363 2.3063,0.39942 0.6027,0.60689 1.9238,-0.37035 1.8081,1.8207 -0.31052,1.0719 4.3713,-3.444 -0.96401,3.0291 1.7615,-1.303 0.92733,2.4722 1.451,-0.23113 0.9852,1.3766 1.4185,-0.41766 -0.09034,0.90899 2.3317,-0.88263 1.9605,-5.8716 0.22302,6.9935 2.909,1.0063 2.3867,-9.1345 -1.0332,8.3438 6.1256,-39.06 c 0.68678,-4.3793 2.4986,-8.5122 2.7156,-12.957 0.12782,-2.6179 -1.3346,-5.5218 -1.6811,-8.2309 -0.11272,-0.88134 0.1833,-1.6985 0.30346,-2.5404 0.21576,-1.5119 1.5522,-3.4521 0.70431,-4.5213 -0.69141,-0.87188 -3.5464,-3.5041 -8.2612,-4.6267 z"
         transform="matrix(1.0194,0,0,1.0194,3.6532,0.94179)"
         style="fill:url(#radialGradient3202);fill-rule:evenodd;stroke:#000000;stroke-width:0.058639;filter:url(#filter3427)"
         inkscape:connector-curvature="0" />
    </g>
    <g
       id="g66"
       style="fill:#ffffff">
      <path
         id="path3206"
         d="m -225.62,-152.98 0,-2.8 0,2.8 z"
         inkscape:connector-curvature="0"
         style="fill-opacity:0.75687998" />
      <rect
         id="rect1327"
         height="0"
         width="1"
         y="-69.934998"
         x="-129.14"
         style="opacity:0.57787003" />
      <rect
         id="rect2482"
         height="0"
         width="1"
         y="-97.462997"
         x="-164.25999"
         style="opacity:0.57787003" />
      <path
         id="path2494"
         d="m -323.2,-170.68 0,-2.79 0,2.79 z"
         inkscape:connector-curvature="0"
         style="fill-opacity:0.75687998" />
      <rect
         id="rect3286"
         height="0"
         width="1"
         y="-105.49"
         x="112.1"
         style="opacity:0.57787003" />
      <rect
         id="rect3288"
         height="0"
         width="1"
         y="-133.02"
         x="76.969002"
         style="opacity:0.57787003" />
    </g>
    <g
       id="g3119"
       transform="matrix(0.3507,0.032833,0.045062,0.25892,48.355,87.356)"
       style="fill-rule:evenodd">
      <path
         id="path3084"
         d="m 82.011,-145.59 c -3.0808,5.1346 -6.8586,10.051 -9.4062,15.656 -1.4221,3.1287 -1.9759,6.6654 -2.6875,9.9688 -0.71161,3.3033 -1.5725,6.3579 -3.4062,8.5312 -2.5033,2.9668 -6.3996,4.9852 -10.469,7.0312 -4.0692,2.046 -8.2962,4.1017 -11.312,7.4688 -9.282,10.361 -15.84,23.456 -22.969,35.469 -11.586,19.524 -20.441,40.642 -33.188,59.125 -23.702,34.369 -50.912,66.486 -76.406,99.781 l 1.4375,1.0938 c 25.458,-33.248 52.668,-65.377 76.438,-99.844 12.889,-18.689 21.781,-39.871 33.281,-59.25 7.1735,-12.089 13.691,-25.044 22.75,-35.156 2.699,-3.0128 6.6773,-5.0459 10.75,-7.0938 4.0727,-2.0478 8.2301,-4.1118 11.062,-7.4688 2.1774,-2.5806 3.0867,-5.9122 3.8125,-9.2812 0.72577,-3.3691 1.2829,-6.8098 2.5625,-9.625 2.4342,-5.3552 6.1308,-10.249 9.2812,-15.5 l -1.5312,-0.90625 z"
         inkscape:connector-curvature="0"
         style="fill:#926b3f" />
      <path
         id="path3086"
         d="m 81.561,-144.97 c -3.0478,4.9746 -6.4923,9.6769 -8.8125,14.781 -1.2796,2.8152 -1.8367,6.2559 -2.5625,9.625 -0.72577,3.3691 -1.6351,6.7006 -3.8125,9.2812 -2.8324,3.3569 -6.9898,5.4209 -11.062,7.4688 -4.0727,2.0478 -8.051,4.0809 -10.75,7.0938 -9.0589,10.112 -15.576,23.068 -22.75,35.156 -11.5,19.379 -20.393,40.561 -33.281,59.25 -23.77,34.467 -50.98,66.596 -76.438,99.844 l 0,1 c 25.458,-33.248 52.668,-65.377 76.438,-99.844 12.889,-18.689 21.781,-39.871 33.281,-59.25 7.1735,-12.089 13.691,-25.044 22.75,-35.156 2.699,-3.0128 6.6773,-5.0459 10.75,-7.0938 4.0727,-2.0478 8.2301,-4.1118 11.062,-7.4688 2.1774,-2.5806 3.0867,-5.9122 3.8125,-9.2812 0.72577,-3.3691 1.2829,-6.8098 2.5625,-9.625 2.4342,-5.3552 6.1308,-10.249 9.2812,-15.5 l -0.46875,-0.28125 z"
         style="fill:url(#linearGradient3131)"
         inkscape:connector-curvature="0" />
      <path
         id="path2497"
         d="m 84.091,-145.59 c -3.0808,5.1346 -6.8586,10.051 -9.4062,15.656 -1.4221,3.1287 -1.9759,6.6654 -2.6875,9.9688 -0.71161,3.3033 -1.5725,6.3579 -3.4062,8.5312 -2.5033,2.9668 -6.3996,4.9852 -10.469,7.0312 -4.0692,2.046 -8.2962,4.1017 -11.312,7.4688 -9.282,10.361 -15.84,23.456 -22.969,35.469 -11.586,19.524 -20.441,40.642 -33.188,59.125 -23.702,34.369 -50.912,66.486 -76.406,99.781 l 1,0 c 25.494,-33.295 52.704,-65.412 76.406,-99.781 12.747,-18.483 21.602,-39.601 33.188,-59.125 7.1284,-12.013 13.687,-25.107 22.969,-35.469 3.0163,-3.367 7.2433,-5.4227 11.312,-7.4688 4.0692,-2.046 7.9655,-4.0644 10.469,-7.0312 1.8338,-2.1734 2.6946,-5.2279 3.4062,-8.5312 0.71161,-3.3033 1.2654,-6.84 2.6875,-9.9688 2.4742,-5.4432 6.0956,-10.244 9.125,-15.219 l -0.71875,-0.4375 z"
         inkscape:connector-curvature="0"
         style="fill:#4a341b" />
    </g>
    <g
       id="g3124"
       transform="matrix(0.3507,0.032833,0.045062,0.25892,46.744,86.831)"
       style="fill-rule:evenodd">
      <path
         id="path3100"
         d="m 102.87,-134.5 c -6.3045,8.0558 -11.494,17.034 -18.562,23.781 -7.6552,7.3073 -20.265,10.79 -27.156,19.875 -8.9275,11.768 -12.687,27.355 -18.812,40.719 -5.2496,11.454 -9.8018,23.188 -15.562,34.219 -10.422,19.956 -23.254,38.836 -33.25,59.219 -7.783,15.871 -12.432,33.098 -19.75,48.844 -3.9791,8.5611 -9.5833,16.438 -14.469,24.813 l 2.1562,1.2812 c 4.8076,-8.2416 10.484,-16.189 14.594,-25.031 7.4405,-16.008 12.079,-33.201 19.719,-48.781 9.8916,-20.171 22.707,-39.06 33.219,-59.188 5.8474,-11.197 10.386,-22.951 15.594,-34.312 6.2659,-13.671 10.079,-29.099 18.562,-40.281 6.1613,-8.1217 18.555,-11.652 26.875,-19.594 7.4197,-7.0825 12.655,-16.132 18.812,-24 l -1.9688,-1.5625 z"
         style="fill:url(#linearGradient3129)"
         inkscape:connector-curvature="0" />
      <path
         id="path3106"
         d="m 102.81,-135.08 c -6.11,7.8352 -11.344,16.804 -18.719,23.844 -8.3199,7.9417 -20.714,11.472 -26.875,19.594 -8.4833,11.183 -12.297,26.61 -18.562,40.281 C 33.4467,-40 28.9077,-28.246 23.06,-17.049 12.549,3.079 -0.267,21.967 -10.159,42.139 c -7.6402,15.58 -12.278,32.773 -19.719,48.781 -4.1099,8.8425 -9.7861,16.79 -14.594,25.031 l -0.875,-0.5 c -0.06129,0.10453 -0.12643,0.20781 -0.1875,0.3125 l 2.1562,1.2812 c 4.8076,-8.2416 10.484,-16.189 14.594,-25.031 7.4405,-16.008 12.079,-33.201 19.719,-48.781 9.8882,-20.162 22.704,-39.05 33.215,-59.178 5.8474,-11.197 10.386,-22.951 15.594,-34.312 6.2659,-13.671 10.079,-29.099 18.562,-40.281 6.1613,-8.1217 18.555,-11.652 26.875,-19.594 7.4197,-7.0825 12.655,-16.132 18.813,-24 l -1.1875,-0.9375 z"
         inkscape:connector-curvature="0"
         style="fill:#ead7bd" />
    </g>
    <g
       id="g3150"
       transform="matrix(0.3507,0.032833,0.045062,0.25892,61.057,78.819)"
       style="fill-rule:evenodd">
      <path
         id="path3133"
         d="m 59.281,-98.375 c -1.4899,7.4495 -1.762,15.277 -4.3438,21.875 -0.76282,1.9494 -2.5621,3.6547 -4.4062,5.4688 -1.8441,1.8141 -3.7456,3.7456 -4.4375,6.375 -3.7577,14.279 -0.91605,30.679 -5.875,43.969 -7.076,18.966 -20.698,35.863 -30.78,54.218 -9.0936,16.554 -16.737,33.875 -26.407,49.907 -8.8293,14.638 -20.58,27.699 -29.375,42.625 -7.48,12.693 -12.783,26.548 -19.125,39.719 l 1.6875,0.8125 c 6.3874,-13.266 11.69,-27.084 19.062,-39.594 8.6643,-14.703 20.419,-27.715 29.375,-42.562 9.7541,-16.166 17.43,-33.507 26.47,-49.965 9.971,-18.152 23.649,-35.103 30.875,-54.469 5.2163,-13.98 2.3042,-30.469 5.9062,-44.156 0.52392,-1.9909 2.1461,-3.7071 3.9688,-5.5 1.8226,-1.7929 3.8336,-3.6545 4.8125,-6.1562 2.747,-7.02 3.0212,-14.95 4.4688,-22.188 l -1.875,-0.375 z"
         inkscape:connector-curvature="0"
         style="fill:#977248" />
      <path
         id="path3139"
         d="m 58.481,-99.275 c -1.4899,7.4495 -1.762,15.277 -4.3438,21.875 -0.76282,1.9494 -2.5621,3.6547 -4.4062,5.4688 -1.8441,1.8141 -3.7456,3.7456 -4.4375,6.375 -3.7577,14.279 -0.91605,30.679 -5.875,43.969 -7.076,18.966 -20.698,35.863 -30.78,54.218 -9.0936,16.554 -16.737,33.875 -26.407,49.907 -8.8293,14.638 -20.58,27.699 -29.375,42.625 -7.48,12.693 -12.783,26.548 -19.125,39.719 l 1.6875,0.8125 c 6.3874,-13.266 11.69,-27.084 19.062,-39.594 8.6643,-14.703 20.419,-27.715 29.375,-42.562 9.7541,-16.166 17.43,-33.507 26.47,-49.965 9.971,-18.152 23.649,-35.103 30.875,-54.469 5.2163,-13.98 2.3042,-30.469 5.9062,-44.156 0.52392,-1.9909 2.1461,-3.7071 3.9688,-5.5 1.8226,-1.7929 3.8336,-3.6545 4.8125,-6.1562 2.747,-7.02 3.0212,-14.95 4.4688,-22.188 l -1.875,-0.375 z"
         style="fill:url(#linearGradient3154)"
         inkscape:connector-curvature="0" />
    </g>
    <g
       id="g3164"
       transform="matrix(0.3507,0.032833,0.045062,0.25892,175.54,90.285)"
       style="fill-rule:evenodd">
      <path
         id="path3156"
         d="m -260.85,-96.094 c -0.74722,5.4796 -0.67489,11.055 -2.1875,16 -0.75265,2.4606 -2.3093,4.8081 -3.8438,7.25 -1.5345,2.4419 -3.0256,5.0034 -3.5,7.9375 -2.4582,15.204 -0.097,31.269 -2.5938,46.25 -3.6976,22.186 -10.915,43.903 -16.125,66.031 -4.7224,20.056 -8.5136,40.326 -13.594,60.219 -6.5309,25.574 -14.179,50.873 -21.281,76.344 l 1.7188,0.46875 c 7.0953,-25.445 14.769,-50.75 21.312,-76.375 5.0997,-19.969 8.8842,-40.249 13.594,-60.25 5.1853,-22.022 12.427,-43.752 16.156,-66.125 2.5609,-15.365 0.16629,-31.46 2.5625,-46.281 0.40302,-2.4928 1.7664,-4.8394 3.2812,-7.25 1.5148,-2.4106 3.2026,-4.8764 4.0625,-7.6875 1.6268,-5.3184 1.4972,-10.99 2.2188,-16.281 l -1.7812,-0.25 z"
         inkscape:connector-curvature="0"
         style="fill:#613f23" />
      <path
         id="path3162"
         d="m -262.05,-96.994 c -0.74722,5.4796 -0.67489,11.055 -2.1875,16 -0.75265,2.4606 -2.3093,4.8081 -3.8438,7.25 -1.5345,2.4419 -3.0256,5.0034 -3.5,7.9375 -2.4582,15.204 -0.097,31.269 -2.5938,46.25 -3.6976,22.186 -10.915,43.903 -16.125,66.031 -4.7224,20.056 -8.5136,40.326 -13.594,60.219 -6.5309,25.574 -14.179,50.873 -21.281,76.344 l 1.7188,0.46875 c 7.0953,-25.445 14.769,-50.75 21.312,-76.375 5.0997,-19.969 8.8842,-40.249 13.594,-60.25 5.1853,-22.022 12.427,-43.752 16.156,-66.125 2.5609,-15.365 0.16629,-31.46 2.5625,-46.281 0.40302,-2.4928 1.7664,-4.8394 3.2812,-7.25 1.5148,-2.4106 3.2026,-4.8764 4.0625,-7.6875 1.6268,-5.3184 1.4972,-10.99 2.2188,-16.281 l -1.7812,-0.25 z"
         inkscape:connector-curvature="0"
         style="fill:#ceb58e" />
    </g>
    <g
       id="g3188"
       transform="matrix(0.3507,0.032833,0.045062,0.25892,187.91,94.436)"
       style="fill-rule:evenodd">
      <path
         id="path3186"
         d="m -299.62,-112.91 c -1.6887,2.8949 -3.5945,5.7516 -5.1562,8.875 -1.5716,3.1432 -1.9318,6.7703 -3.5,8.5625 -0.35471,0.40538 -1.4722,0.7417 -2.8125,1.0312 -1.3403,0.28955 -3.0178,0.56803 -3.9375,2.0625 -2.9064,4.7228 -4.2214,10.996 -5.2812,16.531 -1.2036,6.2857 -0.007,12.719 -1.4375,18.281 -2.8518,11.09 -7.9592,21.815 -11.75,32.969 -8.9604,26.364 -18.632,52.583 -26.438,79.375 -10.336,35.478 -18.61,71.533 -27.906,107.25 l 2.2188,0.5625 c 9.3074,-35.76 17.595,-71.794 27.906,-107.19 7.7752,-26.688 17.433,-52.847 26.406,-79.25 3.733,-10.984 8.855,-21.745 11.781,-33.125 1.6039,-6.2373 0.37814,-12.742 1.4688,-18.438 1.052,-5.4939 2.4156,-11.582 5,-15.781 0.25151,-0.40871 1.1665,-0.71868 2.4688,-1 1.3022,-0.28132 2.9088,-0.49841 4.0312,-1.7812 2.3314,-2.6645 2.5754,-6.4946 3.8438,-9.0312 1.4732,-2.9464 3.3554,-5.77 5.0938,-8.75 l -2,-1.1562 z"
         inkscape:connector-curvature="0"
         style="fill:#83653d" />
      <path
         id="path3180"
         d="m -300.62,-114.91 c -1.6887,2.8949 -3.5945,5.7516 -5.1562,8.875 -1.5716,3.1432 -1.9318,6.7703 -3.5,8.5625 -0.35471,0.40538 -1.4722,0.7417 -2.8125,1.0312 -1.3403,0.28955 -3.0178,0.56803 -3.9375,2.0625 -2.9064,4.7228 -4.2214,10.996 -5.2812,16.531 -1.2036,6.2857 -0.007,12.719 -1.4375,18.281 -2.8518,11.09 -7.9592,21.815 -11.75,32.969 -8.9604,26.364 -18.632,52.583 -26.438,79.375 -10.336,35.478 -18.61,71.533 -27.906,107.25 l 2.2188,0.5625 c 9.3074,-35.76 17.595,-71.794 27.906,-107.19 7.7752,-26.688 17.433,-52.847 26.406,-79.25 3.733,-10.984 8.855,-21.745 11.781,-33.125 1.6039,-6.2373 0.37814,-12.742 1.4688,-18.438 1.052,-5.4939 2.4156,-11.582 5,-15.781 0.25151,-0.40871 1.1665,-0.71868 2.4688,-1 1.3022,-0.28132 2.9088,-0.49841 4.0312,-1.7812 2.3314,-2.6645 2.5754,-6.4946 3.8438,-9.0312 1.4732,-2.9464 3.3554,-5.77 5.0938,-8.75 l -2,-1.1562 z"
         inkscape:connector-curvature="0"
         style="fill:#ab6c40" />
    </g>
    <path
       id="path3243"
       d="m 32.133,113.01 c 1.3514,-1.4623 -1.6876,0.17148 -0.545,-1.3103 6.3402,-8.222 13.202,-19.435 18.478,-27.756 -6.2916,9.8157 -8.5782,20.249 -17.933,29.066 z"
       inkscape:connector-curvature="0"
       style="fill:#2b2014;fill-rule:evenodd" />
    <path
       id="path3245"
       d="M -471.5,121.77 Z"
       inkscape:connector-curvature="0"
       style="fill:none;stroke:#000000;stroke-width:1px" />
    <g
       id="g92"
       style="fill-rule:evenodd">
      <path
         id="path3247"
         d="m 62.702,124.99 c 1.3514,-1.4622 -0.99743,0.45799 -0.54501,-1.3103 2.5994,-10.159 4.8879,-26.032 10.164,-34.354 -6.2916,9.8157 -5.756,25.142 -9.6188,35.664 z"
         inkscape:connector-curvature="0"
         style="fill:#2b2014" />
      <path
         id="path3249"
         d="m 51.62,119.99 c 1.3514,-1.4622 -1.1401,0.41079 -0.545,-1.3103 3.263,-9.44 13.412,-32.642 17.296,-41.755 -3.948,9.902 -12.888,32.545 -16.751,43.065 z"
         inkscape:connector-curvature="0"
         style="fill:#2b2014" />
      <path
         id="path3251"
         d="m 67.227,61.871 c -6.796,0.237 -8.794,7.594 -12.554,12.292 3.823,-4.751 6.565,-11.477 12.554,-12.292 z"
         style="fill:url(#linearGradient3651)"
         inkscape:connector-curvature="0" />
    </g>
    <path
       id="path3262"
       d="m 61.917,75.028 -3.6947,7.8839 -6.5205,9.1157"
       style="fill:none;stroke:url(#linearGradient5670);stroke-width:0.29887px"
       inkscape:connector-curvature="0" />
    <path
       id="path3276"
       d="m 69.019,66.341 c 1.0174,6.6313 -1.1956,7.296 -1.9438,10.666 0.71919,-3.5594 4.2428,-7.2744 1.9438,-10.666 z"
       inkscape:connector-curvature="0"
       style="fill:#f4f0db;fill-rule:evenodd" />
    <path
       id="path3286"
       d="m 27.764,111.58 10.586,-15.086 -8.9984,14.821 -1.588,0.26467 z"
       inkscape:connector-curvature="0"
       style="fill:none" />
    <path
       id="path3410"
       d="m 62.156,55.719 c -0.18357,0.04722 -0.32466,0.19417 -0.36438,0.37951 -0.03971,0.18534 0.02877,0.3772 0.17688,0.49549 4.0492,3.4288 8.1241,4.4046 12.062,5.625 0.26751,0.08629 0.55433,-0.06061 0.64062,-0.32812 0.087,-0.268 -0.06,-0.555 -0.327,-0.641 -3.98,-1.233 -7.85,-2.13 -11.719,-5.406 -0.12422,-0.11975 -0.3014,-0.16699 -0.46875,-0.125 z"
       transform="matrix(1.0194,0,0,1.0194,3.6532,0.94179)"
       inkscape:connector-curvature="0"
       style="fill:#8c8c8c;fill-rule:evenodd;filter:url(#filter3451)" />
    <path
       id="path3455"
       d="m 62.303,57.219 c 3.9591,3.3526 7.9181,4.2975 11.877,5.5243"
       transform="matrix(1.0194,0,0,1.0194,3.6532,0.94179)"
       inkscape:connector-curvature="0"
       style="fill:none;stroke:#000000;stroke-width:1px;stroke-linecap:round;stroke-opacity:0.49703997;filter:url(#filter3473)" />
    <path
       id="path3635"
       d="m 55.2,72.333 c -3.4812,4.118 -7.6484,11.875 -12.533,18.8 4.8834,-5.9352 9.0577,-13.508 12.533,-18.8 z"
       inkscape:connector-curvature="0"
       style="fill-rule:evenodd" />
    <g
       id="g103"
       style="fill:#863e3e;fill-rule:evenodd">
      <path
         id="path3586"
         d="m 42.117,117.12 c 0.75773,-0.91004 0.04941,3.0197 1.3402,0.30822 5.1265,-10.769 11.648,-21.842 16.337,-31.244 l -17.678,30.936 z"
         inkscape:connector-curvature="0" />
      <path
         id="path3588"
         d="m 33.451,115.26 c 0.75773,-0.91004 0.04941,3.0197 1.3402,0.30822 5.1265,-10.769 7.9145,-10.242 12.604,-19.644 l -13.944,19.336 z"
         inkscape:connector-curvature="0" />
      <path
         id="path3590"
         d="m 67.184,123.12 c 0.75773,-0.91004 0.15259,3.9058 0.80685,0.97489 1.6599,-7.4358 2.0479,-6.9089 2.3375,-12.577 -1.2259,4.2722 -1.9184,8.6171 -3.1443,11.603 z"
         inkscape:connector-curvature="0" />
    </g>
    <path
       id="path3592"
       d="m 49.469,75.969 c -0.2388,0.06054 -0.39792,0.28597 -0.375,0.53125 0.04534,0.70121 0.53827,1.2847 1.2188,1.9375 0.68048,0.65277 1.6112,1.3398 2.6875,2.0625 2.1527,1.4454 4.9147,2.9659 7.5,4.1875 2.6677,1.2606 6.481,2.5656 9.875,3.4062 1.697,0.42034 3.3037,0.71904 4.5938,0.84375 0.64503,0.06235 1.2002,0.07291 1.6875,0.03125 0.4873,-0.04166 0.91172,-0.12411 1.25,-0.375 0.18141,-0.08887 0.29154,-0.27816 0.27912,-0.47979 -0.01241,-0.20163 -0.14492,-0.37598 -0.33587,-0.44193 -0.19094,-0.06594 -0.40281,-0.01053 -0.53701,0.14047 -0.07167,0.05315 -0.3556,0.12253 -0.75,0.15625 -0.3944,0.03372 -0.89423,0.02731 -1.5,-0.03125 -1.212,-0.117 -2.773,-0.4 -4.438,-0.812 -3.33,-0.825 -7.115,-2.128 -9.687,-3.344 -2.545,-1.202 -5.283,-2.688 -7.376,-4.093 -1.046,-0.703 -1.95,-1.382 -2.562,-1.969 -0.612,-0.587 -0.896,-1.124 -0.906,-1.281 -0.0047,-0.15192 -0.07819,-0.29347 -0.19978,-0.38466 C 49.77247,75.96285 49.616,75.9319 49.46884,75.96995 Z"
       inkscape:connector-curvature="0"
       style="fill:#808080;fill-rule:evenodd" />
    <path
       id="path3594"
       d="m 49.6,77.467 c 0.1111,1.7184 5.9817,5.3483 11.111,7.7721 5.24,2.476 15.249,5.177 16.889,3.961"
       inkscape:connector-curvature="0"
       style="fill:none;stroke:#000000;stroke-width:1px;stroke-opacity:0.45561996;filter:url(#filter3608)" />
    <g
       id="g110"
       style="fill-rule:evenodd">
      <path
         id="path3612"
         d="m 49.562,76.288 c -0.13174,0.0072 -0.25552,0.0589 -0.34375,0.15625 0.0033,0.0083 -0.0034,0.02294 0,0.03125 0.19366,0.47179 0.59222,0.8939 1.0938,1.375 0.68048,0.65277 1.6112,1.3711 2.6875,2.0938 2.1527,1.4454 4.9147,2.9659 7.5,4.1875 2.6677,1.2606 6.481,2.5656 9.875,3.4062 1.697,0.42034 3.3037,0.71904 4.5938,0.84375 0.64503,0.06236 1.2002,0.07291 1.6875,0.03125 0.45052,-0.03852 0.8316,-0.13463 1.1562,-0.34375 -0.15787,-0.06737 -0.35136,-0.04612 -0.5,0.0625 -0.07167,0.05315 -0.3556,0.15378 -0.75,0.1875 -0.3944,0.03372 -0.89423,0.02731 -1.5,-0.03125 -1.2115,-0.11712 -2.7723,-0.43127 -4.4375,-0.84375 -3.3305,-0.82496 -7.1151,-2.097 -9.6875,-3.3125 -2.5442,-1.2022 -5.2822,-2.7198 -7.375,-4.125 -1.045,-0.704 -1.949,-1.384 -2.561,-1.97 -0.61181,-0.58689 -0.89604,-1.092 -0.90625,-1.25 2.55e-4,-0.1382 -0.05561,-0.28028 -0.15625,-0.375 -0.10064,-0.09472 -0.23707,-0.13362 -0.375,-0.125 z"
         style="fill:url(#linearGradient3627)"
         inkscape:connector-curvature="0" />
      <path
         id="path3633"
         d="m 75.2,79.933 c -0.80988,4.1778 -2.7485,13.435 -6.4,30.4 4.0282,-10.607 5.131,-20.483 6.4,-30.4 z"
         inkscape:connector-curvature="0"
         style="fill:#2b2014" />
      <path
         id="path3637"
         d="m 69.467,63.267 c -3.4812,4.118 -5.2484,7.3412 -8.1333,14.533 3.2834,-7.1352 4.6577,-9.2418 8.1333,-14.533 z"
         inkscape:connector-curvature="0" />
      <path
         id="path3639"
         d="M 56.133,88.6 C 52.6518,92.718 46.3513,106.208 42.4,113.533 46.3501,106.2645 52.658,93.891 56.133,88.6 Z"
         inkscape:connector-curvature="0" />
      <path
         id="path3641"
         d="M 69.467,89.667 C 66.919,94.585 59.952,112.21 56,119.53 59.95,112.26 66.791,95.358 69.467,89.667 Z"
         inkscape:connector-curvature="0"
         style="fill:#ddd298" />
      <path
         id="path3643"
         d="m 77.467,67 c -0.41454,3.4513 -0.04838,9.8745 -4.5333,17.6 3.283,-8.335 4.524,-13.375 4.533,-17.6 z"
         inkscape:connector-curvature="0"
         style="fill:#bb7c3e" />
      <path
         id="path3679"
         d="m 67,57.875 c -0.14034,0.0361 -0.21495,0.12591 -0.28125,0.25 0.02945,0.04569 0.04989,0.08997 0.09375,0.125 4.1275,3.4952 8.2979,4.506 12.312,5.75 0.2386,0.07697 0.47513,-0.03986 0.59375,-0.25 -0.062,-0.1 -0.159,-0.211 -0.28,-0.25 -4.057,-1.257 -7.994,-2.16 -11.938,-5.5 -0.127,-0.122 -0.329,-0.168 -0.5,-0.125 z"
         style="fill:url(#linearGradient3691);filter:url(#filter3451)"
         inkscape:connector-curvature="0" />
      <path
         id="path3693"
         d="m 62.156,55.719 c -0.18357,0.04722 -0.32466,0.19417 -0.36438,0.37951 -0.03971,0.18534 0.02877,0.3772 0.17688,0.49549 4.0492,3.4288 8.1241,4.4046 12.062,5.625 0.26751,0.08629 0.55433,-0.06061 0.64062,-0.32812 0.087,-0.268 -0.06,-0.555 -0.327,-0.641 -3.98,-1.233 -7.85,-2.13 -11.719,-5.406 -0.12422,-0.11975 -0.3014,-0.16699 -0.46875,-0.125 z"
         transform="matrix(0.90259,0,0,0.90259,13.618,1.4104)"
         inkscape:connector-curvature="0"
         style="fill:#8c8c8c;filter:url(#filter3451)" />
    </g>
    <path
       id="path3695"
       d="m 62.303,57.219 c 3.9591,3.3526 7.9181,4.2975 11.877,5.5243"
       transform="matrix(0.90259,0,0,0.90259,13.618,1.4104)"
       inkscape:connector-curvature="0"
       style="fill:none;stroke:#000000;stroke-width:1px;stroke-linecap:round;stroke-opacity:0.49703997;filter:url(#filter3473)" />
    <path
       id="path3697"
       d="m 66.111,50.67 c -0.14034,0.0361 -0.21495,0.12591 -0.28125,0.25 0.02945,0.04569 0.04989,0.08997 0.09375,0.125 4.1275,3.4952 8.2979,4.506 12.312,5.75 0.2386,0.07697 0.47513,-0.03986 0.59375,-0.25 -0.06254,-0.10039 -0.15987,-0.21084 -0.28125,-0.25 -4.0568,-1.2571 -7.9936,-2.1603 -11.938,-5.5 -0.12662,-0.12206 -0.32941,-0.16781 -0.5,-0.125 z"
       transform="matrix(0.88546,0,0,0.88546,11.171,6.9561)"
       style="fill:url(#linearGradient3699);fill-rule:evenodd;filter:url(#filter3451)"
       inkscape:connector-curvature="0" />
  </g>
</svg>
